<svg id="icons" xmlns="http://www.w3.org/2000/svg" viewBox="0 0 260 260"><defs><style>.cls-1{fill:#237aba;}</style></defs><title>1</title><path class="cls-1" d="M254.26,168.55,209,213.78,193.51,229.3,150.25,186l14.42-14.42,28.84,28.84,49.27-49.27a65,65,0,1,0,11.48,17.36Z"/><path class="cls-1" d="M20,199.52h90.13c-.09-1.58-.14-3.17-.14-4.77a85.4,85.4,0,0,1,1.39-15.23H30v-140H230v77.78A85,85,0,0,1,250,130V29.52a10,10,0,0,0-10-10H20a10,10,0,0,0-10,10v160A10,10,0,0,0,20,199.52Z"/><path class="cls-1" d="M0,219.75v20H122.75a84.55,84.55,0,0,1-9.07-20Z"/><polygon class="cls-1" points="40 59.75 40 99.75 100 159.75 170 89.75 190 109.75 190 49.75 130 49.75 150 69.75 100 119.75 40 59.75"/></svg>