<svg width="180" height="180" viewBox="0 0 180 180" fill="none" xmlns="http://www.w3.org/2000/svg">
<path d="M87.083 109.183H35.333V61.6C35.333 58.3833 37.9497 55.7667 41.1663 55.7667H81.2664C84.483 55.7667 87.0997 58.3833 87.0997 61.6V109.183H87.083Z" fill="#FF7F41"/>
<path d="M76.183 128.45H46.233C40.2163 128.45 35.333 123.567 35.333 117.55V69.7C35.333 66.0333 38.2997 63.0667 41.9663 63.0667H80.4664C84.133 63.0667 87.0997 66.0333 87.0997 69.7V117.55C87.083 123.567 82.2164 128.45 76.183 128.45Z" fill="#FDDA24"/>
<path d="M79.266 92.4834H43.166C42.4826 92.4834 41.9326 91.9334 41.9326 91.25V70.6667C41.9326 69.9833 42.4826 69.4333 43.166 69.4333H79.266C79.9493 69.4333 80.4993 69.9833 80.4993 70.6667V91.2334C80.4993 91.9167 79.9493 92.4834 79.266 92.4834Z" fill="white"/>
<path d="M49.016 100.733H42.6327C42.2327 100.733 41.916 100.417 41.916 100.017V96.2667C41.916 95.8667 42.2327 95.55 42.6327 95.55H49.016C49.416 95.55 49.7327 95.8667 49.7327 96.2667V100.017C49.7327 100.417 49.416 100.733 49.016 100.733Z" fill="white"/>
<path d="M59.2826 100.733H52.8993C52.4993 100.733 52.1826 100.417 52.1826 100.017V96.2667C52.1826 95.8667 52.4993 95.55 52.8993 95.55H59.2826C59.6826 95.55 59.9993 95.8667 59.9993 96.2667V100.017C59.9826 100.417 59.666 100.733 59.2826 100.733Z" fill="white"/>
<path d="M69.5326 100.733H63.1493C62.7493 100.733 62.4326 100.417 62.4326 100.017V96.2667C62.4326 95.8667 62.7493 95.55 63.1493 95.55H69.5326C69.9326 95.55 70.2493 95.8667 70.2493 96.2667V100.017C70.2493 100.417 69.9326 100.733 69.5326 100.733Z" fill="white"/>
<path d="M79.7826 100.733H73.3993C72.9993 100.733 72.6826 100.417 72.6826 100.017V96.2667C72.6826 95.8667 72.9993 95.55 73.3993 95.55H79.7826C80.1826 95.55 80.4993 95.8667 80.4993 96.2667V100.017C80.4993 100.417 80.1826 100.733 79.7826 100.733Z" fill="#00C389"/>
<path d="M49.016 107.8H42.6327C42.2327 107.8 41.916 107.483 41.916 107.083V103.333C41.916 102.933 42.2327 102.617 42.6327 102.617H49.016C49.416 102.617 49.7327 102.933 49.7327 103.333V107.083C49.7327 107.467 49.416 107.8 49.016 107.8Z" fill="white"/>
<path d="M59.2826 107.8H52.8993C52.4993 107.8 52.1826 107.483 52.1826 107.083V103.333C52.1826 102.933 52.4993 102.617 52.8993 102.617H59.2826C59.6826 102.617 59.9993 102.933 59.9993 103.333V107.083C59.9826 107.467 59.666 107.8 59.2826 107.8Z" fill="white"/>
<path d="M69.5326 107.8H63.1493C62.7493 107.8 62.4326 107.483 62.4326 107.083V103.333C62.4326 102.933 62.7493 102.617 63.1493 102.617H69.5326C69.9326 102.617 70.2493 102.933 70.2493 103.333V107.083C70.2493 107.467 69.9326 107.8 69.5326 107.8Z" fill="white"/>
<path d="M79.7826 107.8H73.3993C72.9993 107.8 72.6826 107.483 72.6826 107.083V103.333C72.6826 102.933 72.9993 102.617 73.3993 102.617H79.7826C80.1826 102.617 80.4993 102.933 80.4993 103.333V107.083C80.4993 107.467 80.1826 107.8 79.7826 107.8Z" fill="#FF7F41"/>
<path d="M49.016 114.833H42.6327C42.2327 114.833 41.916 114.517 41.916 114.117V110.367C41.916 109.967 42.2327 109.65 42.6327 109.65H49.016C49.416 109.65 49.7327 109.967 49.7327 110.367V114.117C49.7327 114.5 49.416 114.833 49.016 114.833Z" fill="white"/>
<path d="M59.2826 114.833H52.8993C52.4993 114.833 52.1826 114.517 52.1826 114.117V110.367C52.1826 109.967 52.4993 109.65 52.8993 109.65H59.2826C59.6826 109.65 59.9993 109.967 59.9993 110.367V114.117C59.9826 114.5 59.666 114.833 59.2826 114.833Z" fill="white"/>
<path d="M69.5326 114.833H63.1493C62.7493 114.833 62.4326 114.517 62.4326 114.117V110.367C62.4326 109.967 62.7493 109.65 63.1493 109.65H69.5326C69.9326 109.65 70.2493 109.967 70.2493 110.367V114.117C70.2493 114.5 69.9326 114.833 69.5326 114.833Z" fill="white"/>
<path d="M79.3993 121.883H73.7826C73.1826 121.883 72.6826 121.4 72.6826 120.783V110.75C72.6826 110.15 73.1659 109.65 73.7826 109.65H79.3993C79.9993 109.65 80.4993 110.133 80.4993 110.75V120.783C80.4993 121.4 80.0159 121.883 79.3993 121.883Z" fill="#9063CD"/>
<path d="M49.016 121.883H42.6327C42.2327 121.883 41.916 121.567 41.916 121.167V117.417C41.916 117.017 42.2327 116.7 42.6327 116.7H49.016C49.416 116.7 49.7327 117.017 49.7327 117.417V121.167C49.7327 121.567 49.416 121.883 49.016 121.883Z" fill="white"/>
<path d="M59.2826 121.883H52.8993C52.4993 121.883 52.1826 121.567 52.1826 121.167V117.417C52.1826 117.017 52.4993 116.7 52.8993 116.7H59.2826C59.6826 116.7 59.9993 117.017 59.9993 117.417V121.167C59.9826 121.567 59.666 121.883 59.2826 121.883Z" fill="white"/>
<path d="M69.5326 121.883H63.1493C62.7493 121.883 62.4326 121.567 62.4326 121.167V117.417C62.4326 117.017 62.7493 116.7 63.1493 116.7H69.5326C69.9326 116.7 70.2493 117.017 70.2493 117.417V121.167C70.2493 121.567 69.9326 121.883 69.5326 121.883Z" fill="white"/>
<path d="M80.4994 59.05H41.916V52.2166C41.916 50.8 43.066 49.6333 44.4993 49.6333H77.9327C79.3493 49.6333 80.516 50.7833 80.516 52.2166V59.05H80.4994Z" fill="#F5B6CD"/>
<path d="M79.5493 61.1666H42.8827C42.3493 61.1666 41.916 60.7333 41.916 60.2V54.3333C41.916 52.9166 43.066 51.7499 44.4993 51.7499H77.9327C79.3493 51.7499 80.516 52.8999 80.516 54.3333V60.2166C80.4994 60.7333 80.066 61.1666 79.5493 61.1666Z" fill="#2C2A29"/>
<path d="M111.184 151.967C129.722 151.967 144.751 136.938 144.751 118.4C144.751 99.8617 129.722 84.8334 111.184 84.8334C92.6455 84.8334 77.6172 99.8617 77.6172 118.4C77.6172 136.938 92.6455 151.967 111.184 151.967Z" fill="#E4AC7B"/>
<path d="M126.75 130.9L87.9836 130.917C83.8336 130.917 80.4669 127.55 80.4669 123.4L80.4336 35.7167C80.4336 31.5667 83.8003 28.2 87.9503 28.2L126.717 28.1667C130.867 28.1667 134.234 31.5334 134.234 35.6834L134.267 123.367C134.267 127.533 130.917 130.9 126.75 130.9Z" fill="#59CBE8"/>
<path d="M107.367 128.317C109.254 128.317 110.784 126.787 110.784 124.9C110.784 123.013 109.254 121.483 107.367 121.483C105.48 121.483 103.95 123.013 103.95 124.9C103.95 126.787 105.48 128.317 107.367 128.317Z" fill="white"/>
<path d="M130.217 39.5834L130.233 118.267L130.217 118.283L84.5001 118.3V109.217L84.4668 39.6L130.217 39.5834Z" fill="white"/>
<path d="M118.434 60.9333L94.7335 63.6C93.3335 63.75 92.2002 65.1333 92.2002 66.6833V81.5833C92.2002 83.1333 93.3335 84.25 94.7335 84.0833L118.434 81.4167C119.834 81.2667 120.967 79.8833 120.967 78.3333V66.2333V63.4333C120.967 61.8833 119.834 60.7667 118.434 60.9333Z" fill="#FF7F41"/>
<path d="M94.9668 64.65L116.983 58.95L117.117 66.5834L94.9668 64.65Z" fill="#59CBE8"/>
<path d="M94.9668 64.65L120.1 60.05V67.8667L94.9668 64.65Z" fill="#00C389"/>
<path d="M119.617 65.3001L94.8336 64.0167C93.3669 63.9334 92.1836 65.1334 92.1836 66.6667V81.5667C92.1836 83.1167 93.3669 84.4167 94.8336 84.5L119.6 85.7833C121.067 85.8667 122.25 84.6667 122.25 83.1333V71.0334V68.2334C122.267 66.6834 121.084 65.3834 119.617 65.3001Z" fill="#9063CD"/>
<path d="M118.767 77.2667C119.513 77.2667 120.117 76.6622 120.117 75.9167C120.117 75.1711 119.513 74.5667 118.767 74.5667C118.021 74.5667 117.417 75.1711 117.417 75.9167C117.417 76.6622 118.021 77.2667 118.767 77.2667Z" fill="#FDDA24"/>
<path d="M130.217 109.2H84.5V118.283H130.217V109.2Z" fill="#FDDA24"/>
<path d="M84.417 118.383V109.133H84.5003L130.3 109.117V118.367H130.217L84.417 118.383ZM84.5837 109.3V118.217L130.134 118.2V109.283L84.5837 109.3Z" fill="#FDDA24"/>
<path d="M143.783 121.917C142.65 127.2 140.383 132.233 137.117 136.633C136.383 137.617 135.783 138.783 135.283 140.05C134.7 141.517 130.333 143.7 128.733 142.85L119.333 130.95C118.967 129.483 118.767 127.95 118.767 126.367C118.767 120.083 121.867 114.533 126.617 111.15C128.133 110.067 128.433 109.733 130.233 109.15V101.183L123.15 86.6167C120.367 82.2834 121.633 76.5334 125.95 73.75C126.133 73.6334 126.333 73.5834 126.533 73.5834C126.883 73.5834 127.233 73.75 127.433 74.0834L135.083 86L141.7 96.2167C143.267 98.6334 144.15 101.417 144.283 104.3L144.45 107.983L144.5 109.067V109.1L144.633 112.083C144.767 115.4 144.483 118.717 143.783 121.917Z" fill="#E4AC7B"/>
<path d="M119.333 130.95L128.733 142.867C124.116 140.433 120.65 136.117 119.333 130.95Z" fill="#E4AC7B"/>
<path d="M78.1167 117.35L72.65 110.483C70.4667 107.75 70.9167 103.767 73.6667 101.583L78.6167 97.6334L88.0334 109.45C90.2167 112.183 89.7667 116.167 87.0167 118.35C84.2834 120.55 80.3 120.1 78.1167 117.35Z" fill="#E4AC7B"/>
<path d="M78.1167 104.55L72.65 97.6834C70.4667 94.95 70.9167 90.9667 73.6667 88.7834L78.6167 84.8334L88.0334 96.65C90.2167 99.3834 89.7667 103.367 87.0167 105.55C84.2667 107.733 80.2833 107.283 78.1167 104.55Z" fill="#E4AC7B"/>
<path d="M78.1001 91.75L72.6334 84.8833C70.4501 82.15 70.9001 78.1667 73.6501 75.9833L78.6001 72.0333L88.0167 83.85C90.2001 86.5833 89.7501 90.5667 87.0167 92.75C84.2667 94.9333 80.2834 94.4833 78.1001 91.75Z" fill="#E4AC7B"/>
<path d="M78.5996 59.2334L80.4496 57.85V64.65L78.5996 59.2334Z" fill="#E4AC7B"/>
<path d="M78.1001 78.9333L72.6334 72.0667C70.4501 69.3333 70.9001 65.35 73.6501 63.1667L78.6001 59.2167L88.0167 71.0333C90.2001 73.7667 89.7501 77.75 87.0001 79.9333C84.2667 82.1167 80.2834 81.6667 78.1001 78.9333Z" fill="#E4AC7B"/>
<path d="M61.7666 90.1333C66.8752 90.1333 71.0166 85.9919 71.0166 80.8833C71.0166 75.7747 66.8752 71.6333 61.7666 71.6333C56.658 71.6333 52.5166 75.7747 52.5166 80.8833C52.5166 85.9919 56.658 90.1333 61.7666 90.1333Z" fill="#00C389"/>
<path d="M59.1837 86.15C58.9504 86.15 58.7171 86.05 58.5504 85.8833L56.1004 83.4333C55.7504 83.0833 55.7504 82.5333 56.1004 82.1833C56.4504 81.8333 57.0004 81.8333 57.3504 82.1833L59.1671 84L66.167 77C66.517 76.65 67.067 76.65 67.417 77C67.767 77.35 67.767 77.9 67.417 78.25L59.8004 85.8667C59.6337 86.05 59.4171 86.15 59.1837 86.15Z" fill="white"/>
</svg>
