<svg xmlns="http://www.w3.org/2000/svg" viewBox="0 0 260 260"><defs><style>.cls-1{fill:#237aba}</style></defs><title>5</title><g id="icons"><g id="text-2" data-name="text"><path class="cls-1" d="M239 100.44h-11.38l-19.8-67.9a3.09 3.09 0 0 0-2.79-2.1H55.53a3.13 3.13 0 0 0-2.81 2.08l-20.66 67.92H20.83a10.91 10.91 0 0 0-10.92 10.9v10.93a11.14 11.14 0 0 0 10.92 11.17h9.08v86.08a10.91 10.91 0 0 0 10.9 10.92h12.65c6 0 10.45-4.89 10.45-10.92v-9.08h131v9.08a10.88 10.88 0 0 0 10.84 10.92h11c6 0 13.19-4.89 13.19-10.92v-86.08H239a11.14 11.14 0 0 0 10.92-11.17v-10.93a10.91 10.91 0 0 0-10.92-10.9zm-169.08-50h120l15 50h-150zm-5 110a15 15 0 1 1 15-15 15 15 0 0 1-15 15zm134.5.5a15 15 0 1 1 15-15 15 15 0 0 1-15 15z"/><path class="cls-1" d="M109.41 84.72l19.77-19.77H77.41l-6 20M188.41 84.95l-6-20h-33.37l-19.77 19.77"/></g></g></svg>