<svg width="180" height="180" viewBox="0 0 180 180" fill="none" xmlns="http://www.w3.org/2000/svg">
<path d="M137.834 138.633L125.917 134.533L131.65 106.833L149.85 113.083L137.834 138.633Z" fill="#FF7F41"/>
<path d="M149.817 114.467L130.85 107.95C130.567 107.85 130.4 107.533 130.5 107.25L131 105.8C131.1 105.517 131.417 105.35 131.7 105.45L150.667 111.967C150.95 112.067 151.117 112.383 151.017 112.667L150.517 114.117C150.417 114.4 150.1 114.567 149.817 114.467Z" fill="#FF7F41"/>
<path d="M139.767 114.35L137.134 112.917L142.884 102.383C143.15 101.9 143.6 101.55 144.117 101.417C144.65 101.283 145.2 101.367 145.667 101.667L153.417 106.617L151.8 109.15L144.984 104.8L139.767 114.35Z" fill="#FF7F41"/>
<path d="M135.901 126.833C138.423 126.833 140.467 124.789 140.467 122.267C140.467 119.745 138.423 117.7 135.901 117.7C133.379 117.7 131.334 119.745 131.334 122.267C131.334 124.789 133.379 126.833 135.901 126.833Z" fill="white"/>
<path d="M57.1663 70H39.883H37.5163V80.5667V90.3333C36.933 90.05 36.283 89.8833 35.5997 89.8833C33.233 89.8833 31.333 91.8 31.333 94.15C31.333 96.5166 33.2497 98.4166 35.5997 98.4166C37.9497 98.4166 39.883 96.5166 39.883 94.15V80.5667H57.1663V90.3333C56.583 90.05 55.933 89.8833 55.2497 89.8833C52.883 89.8833 50.983 91.8 50.983 94.15C50.983 96.5166 52.8997 98.4166 55.2497 98.4166C57.5997 98.4166 59.5163 96.5 59.5163 94.15V80.5667V70H57.1663Z" fill="#9063CD"/>
<path d="M47.6333 116.783C29.6333 116.783 15 102.15 15 84.1666C15 80.4 15.6333 76.7 16.9 73.1666C17.4333 71.7 19.05 70.9333 20.5167 71.45C21.9833 71.9833 22.75 73.6 22.2333 75.0666C21.2 77.9833 20.6667 81.0333 20.6667 84.1666C20.6667 99.0333 32.7667 111.133 47.6333 111.133C62.5 111.133 74.5833 99.0333 74.5833 84.1666C74.5833 79.0166 73.1333 74.0166 70.3667 69.7C67.6833 65.4833 63.9 62.1166 59.4167 59.9333C58.0167 59.25 57.4333 57.55 58.1167 56.15C58.8 54.75 60.5 54.1666 61.9 54.85C67.3167 57.5 71.9 61.5833 75.1333 66.6666C78.4667 71.9 80.2333 77.95 80.2333 84.1833C80.25 102.15 65.6167 116.783 47.6333 116.783Z" fill="#FF7F41"/>
<path d="M23.5169 69.4834C22.9336 69.4834 22.3502 69.3001 21.8502 68.9334C20.5836 68.0167 20.3002 66.2334 21.2336 64.9834C24.2002 60.9167 28.1169 57.5334 32.5836 55.2001C37.2002 52.8001 42.4002 51.5334 47.6336 51.5334C49.2002 51.5334 50.4669 52.8001 50.4669 54.3667C50.4669 55.9334 49.2002 57.2001 47.6336 57.2001C43.2502 57.2001 39.0669 58.2167 35.2002 60.2334C31.5169 62.1501 28.2669 64.9501 25.8169 68.3167C25.2669 69.0834 24.4002 69.4834 23.5169 69.4834Z" fill="#FF7F41"/>
<path d="M152.05 100.617C151.65 100.617 151.233 100.5 150.867 100.25C150.083 99.7166 149.25 99.2166 148.4 98.7833C147.383 98.25 146.983 97 147.5 95.9833C148.033 94.9666 149.283 94.5666 150.3 95.0833C151.3 95.6 152.267 96.1833 153.2 96.8166C154.15 97.4666 154.383 98.7666 153.733 99.7166C153.367 100.3 152.717 100.617 152.05 100.617Z" fill="#F5B6CD"/>
<path d="M162.067 114.35C161.167 114.35 160.333 113.767 160.067 112.867C159.117 109.667 157.517 106.767 155.317 104.233C154.567 103.367 154.65 102.05 155.517 101.3C156.383 100.55 157.7 100.633 158.45 101.5C161.05 104.483 162.933 107.917 164.05 111.683C164.383 112.783 163.75 113.95 162.65 114.267C162.467 114.317 162.267 114.35 162.067 114.35Z" fill="#F5B6CD"/>
<path d="M137.684 147.067C122.5 147.067 110.15 134.717 110.15 119.533C110.15 104.35 122.5 92 137.684 92C138.834 92 139.767 92.9333 139.767 94.0833C139.767 95.2333 138.834 96.1667 137.684 96.1667C124.8 96.1833 114.334 106.667 114.334 119.55C114.334 132.433 124.817 142.917 137.7 142.917C150.584 142.917 161.067 132.433 161.067 119.55C161.067 119.217 161.067 118.867 161.05 118.533C161 117.383 161.9 116.417 163.05 116.367C164.2 116.317 165.167 117.217 165.217 118.367C165.234 118.767 165.25 119.167 165.25 119.567C165.217 134.717 152.867 147.067 137.684 147.067Z" fill="#F5B6CD"/>
<path d="M127.833 73.85C109.717 73.85 94.9834 59.1167 94.9834 41C94.9834 22.9 109.717 8.16669 127.833 8.16669C134.583 8.16669 141.067 10.2 146.6 14.05C152 17.8167 156.1 23.0167 158.467 29.1334C159.017 30.55 158.317 32.15 156.9 32.7C155.483 33.25 153.883 32.55 153.333 31.1334C151.367 26.05 147.95 21.7167 143.45 18.5834C138.85 15.3667 133.45 13.6667 127.833 13.6667C112.75 13.6667 100.483 25.9334 100.483 41.0167C100.483 56.1 112.75 68.3667 127.833 68.3667C132.5 68.3667 137.1 67.1667 141.15 64.9167C142.483 64.1834 144.15 64.65 144.9 65.9834C145.633 67.3167 145.167 68.9834 143.833 69.7334C138.95 72.4167 133.433 73.85 127.833 73.85Z" fill="#00C389"/>
<path d="M138.734 31H116.684C111.15 31 106.667 35.4833 106.667 41.0167C106.667 46.55 111.15 51.0333 116.684 51.0333C120.384 51.0333 123.617 49.0167 125.35 46.0333H130.067C131.8 49.0167 135.034 51.0333 138.734 51.0333C144.267 51.0333 148.75 46.55 148.75 41.0167C148.75 35.4833 144.267 31 138.734 31Z" fill="#FDDA24"/>
<path d="M121.067 39.2833H118.017V36.2333H114.533V39.2833H111.483V42.7667H114.533V45.8167H118.017V42.7667H121.067V39.2833Z" fill="white"/>
<path d="M134.534 42.55C135.583 42.55 136.434 41.6993 136.434 40.65C136.434 39.6007 135.583 38.75 134.534 38.75C133.484 38.75 132.634 39.6007 132.634 40.65C132.634 41.6993 133.484 42.55 134.534 42.55Z" fill="#00C389"/>
<path d="M143.451 42.55C144.5 42.55 145.351 41.6993 145.351 40.65C145.351 39.6007 144.5 38.75 143.451 38.75C142.401 38.75 141.551 39.6007 141.551 40.65C141.551 41.6993 142.401 42.55 143.451 42.55Z" fill="#F5B6CD"/>
<path d="M138.984 47C140.033 47 140.884 46.1494 140.884 45.1C140.884 44.0507 140.033 43.2 138.984 43.2C137.935 43.2 137.084 44.0507 137.084 45.1C137.084 46.1494 137.935 47 138.984 47Z" fill="#9063CD"/>
<path d="M138.984 38.0833C140.033 38.0833 140.884 37.2327 140.884 36.1833C140.884 35.134 140.033 34.2833 138.984 34.2833C137.935 34.2833 137.084 35.134 137.084 36.1833C137.084 37.2327 137.935 38.0833 138.984 38.0833Z" fill="#FF7F41"/>
<path d="M129.633 41.5333H125.767V43.35H129.633V41.5333Z" fill="white"/>
<path d="M153.616 59.2667C153.133 59.2667 152.65 59.1334 152.2 58.8667C150.9 58.0834 150.483 56.4001 151.266 55.1001C153.816 50.8667 155.166 46.0001 155.166 41.0167C155.166 39.5001 156.4 38.2667 157.916 38.2667C159.433 38.2667 160.666 39.5001 160.666 41.0167C160.666 47.0001 159.05 52.8501 155.983 57.9334C155.466 58.7834 154.55 59.2667 153.616 59.2667Z" fill="#00C389"/>
<path d="M96.2503 171.95C114.789 171.95 129.817 156.922 129.817 138.383C129.817 119.845 114.789 104.817 96.2503 104.817C77.7119 104.817 62.6836 119.845 62.6836 138.383C62.6836 156.922 77.7119 171.95 96.2503 171.95Z" fill="#E4AC7B"/>
<path d="M111.817 150.867L73.05 150.883C68.9 150.883 65.5333 147.517 65.5333 143.367L65.5 55.6834C65.5 51.5334 68.8667 48.1667 73.0167 48.1667L111.783 48.15C115.933 48.15 119.3 51.5167 119.3 55.6667L119.333 143.35C119.35 147.5 115.983 150.867 111.817 150.867Z" fill="#59CBE8"/>
<path d="M92.4333 148.3C94.3202 148.3 95.8499 146.77 95.8499 144.883C95.8499 142.996 94.3202 141.467 92.4333 141.467C90.5463 141.467 89.0166 142.996 89.0166 144.883C89.0166 146.77 90.5463 148.3 92.4333 148.3Z" fill="white"/>
<path d="M115.283 59.5667L115.3 138.25H115.283L69.5665 138.267V129.2L69.5332 59.5834L115.283 59.5667Z" fill="white"/>
<path d="M106.384 114.086L78.167 113.67C77.617 113.67 77.167 113.203 77.167 112.653L77.5837 84.4365C77.5837 83.8865 78.0503 83.4365 78.6003 83.4365L106.817 83.8532C107.367 83.8532 107.817 84.3199 107.817 84.8699L107.417 113.086C107.4 113.636 106.95 114.086 106.384 114.086Z" fill="#F5B6CD"/>
<path d="M90.9736 83.616L90.5293 113.846L94.029 113.898L94.4732 83.6674L90.9736 83.616Z" fill="#59CBE8"/>
<path d="M77.4117 96.7854L77.3604 100.285L107.591 100.728L107.642 97.2287L77.4117 96.7854Z" fill="#59CBE8"/>
<path d="M92.7174 85.7199C92.5007 85.7199 92.284 85.6865 92.0674 85.6032L81.9507 81.5865C80.5007 81.0199 79.4507 79.7699 79.1007 78.2532C78.7507 76.7365 79.184 75.1532 80.234 74.0199C81.1673 73.0032 82.5007 72.4532 83.884 72.5032C85.2673 72.5532 86.5507 73.2199 87.4007 74.3199L94.1007 82.9032C94.584 83.5199 94.6007 84.4032 94.1174 85.0365C93.784 85.4699 93.2507 85.7199 92.7174 85.7199ZM83.684 75.9865C83.4673 75.9865 83.1007 76.0365 82.8007 76.3699C82.4173 76.7865 82.4673 77.2699 82.5173 77.4532C82.5673 77.6365 82.7173 78.1032 83.2507 78.3032L87.384 79.9532L84.6507 76.4365C84.3507 76.0532 83.9507 75.9865 83.7507 75.9699C83.734 75.9865 83.7173 75.9865 83.684 75.9865Z" fill="#59CBE8"/>
<path d="M92.717 85.7199C92.167 85.7199 91.617 85.4532 91.2837 84.9699C90.8337 84.3199 90.867 83.4532 91.367 82.8532L98.317 74.4699C99.2004 73.4032 100.5 72.7865 101.884 72.7699C103.267 72.7532 104.584 73.3365 105.5 74.3865C106.517 75.5532 106.9 77.1532 106.5 78.6532C106.1 80.1532 105.017 81.3699 103.55 81.9032L93.317 85.6199C93.117 85.6866 92.917 85.7199 92.717 85.7199ZM101.95 76.2532C101.934 76.2532 101.934 76.2532 101.95 76.2532C101.734 76.2532 101.334 76.3199 101.017 76.6866L98.1837 80.1199L102.367 78.6032C102.9 78.4032 103.084 77.9532 103.117 77.7699C103.167 77.5866 103.234 77.1032 102.867 76.6699C102.55 76.3032 102.15 76.2532 101.95 76.2532Z" fill="#59CBE8"/>
<path d="M115.283 129.183H69.5664V138.267H115.283V129.183Z" fill="#FDDA24"/>
<path d="M69.4834 138.35V129.1H69.5667L115.367 129.083V138.333H115.283L69.4834 138.35ZM69.6501 129.283V138.2L115.2 138.183V129.267L69.6501 129.283Z" fill="#FDDA24"/>
<path d="M128.85 141.9C127.716 147.183 125.45 152.217 122.183 156.617C121.45 157.6 120.85 158.767 120.35 160.033C119.766 161.5 115.4 163.683 113.8 162.833L104.4 150.917C104.033 149.45 103.833 147.917 103.833 146.333C103.833 140.05 106.933 134.5 111.683 131.117C113.2 130.033 113.5 129.7 115.3 129.117V121.15L108.216 106.583C105.433 102.25 106.7 96.5 111.016 93.7167C111.2 93.6 111.4 93.55 111.6 93.55C111.95 93.55 112.3 93.7167 112.5 94.05L120.15 105.967L126.766 116.183C128.333 118.6 129.216 121.383 129.35 124.267L129.516 127.95L129.566 129.033V129.067L129.7 132.05C129.833 135.383 129.55 138.683 128.85 141.9Z" fill="#E4AC7B"/>
<path d="M63.1831 137.333L57.7164 130.467C55.5331 127.733 55.9831 123.75 58.7331 121.567L63.6831 117.617L73.0997 129.433C75.2831 132.167 74.8331 136.15 72.0831 138.333C69.3497 140.517 65.3664 140.067 63.1831 137.333Z" fill="#E4AC7B"/>
<path d="M63.1834 124.533L57.7167 117.667C55.5334 114.933 55.9834 110.95 58.7167 108.767L63.6667 104.817L73.0834 116.633C75.2667 119.367 74.8167 123.35 72.0667 125.533C69.3334 127.717 65.3501 127.267 63.1834 124.533Z" fill="#E4AC7B"/>
<path d="M63.1831 111.717L57.7164 104.85C55.5331 102.117 55.9831 98.1334 58.7331 95.9501L63.6831 92.0001L73.0997 103.817C75.2831 106.55 74.8331 110.533 72.0997 112.717C69.3331 114.917 65.3497 114.467 63.1831 111.717Z" fill="#E4AC7B"/>
<path d="M63.667 79.2167L65.517 77.8167V84.6334L63.667 79.2167Z" fill="#E4AC7B"/>
<path d="M63.1665 98.9167L57.6998 92.05C55.5165 89.3167 55.9665 85.3333 58.7165 83.15L63.6665 79.2L73.0831 91.0167C75.2665 93.75 74.8165 97.7333 72.0665 99.9167C69.3331 102.1 65.3498 101.65 63.1665 98.9167Z" fill="#E4AC7B"/>
</svg>
