<svg id="b333a08e-df83-4a25-bba1-22d78181c757" data-name="Blue" xmlns="http://www.w3.org/2000/svg" viewBox="0 0 260 260"><g id="f8bcb8ae-e26a-43c6-a3cd-c6554777ee19" data-name="icons"><path d="M161.82,85.35a62.34,62.34,0,0,0-2.6-6.73c-2.15-4.77-3.95-6.51-4.61-7h-.09L131.14,94.14a31,31,0,0,1-37,4.74l10.1,26.48,42.85,19.23-8.15,18.34-24.59-11,19.85,52.18h0l-14.71,5.64-4,1.51h0L95.64,159l-11,24.67-18.26-8.18,19.16-43L73.87,101.8,54,146.61l-18.3-8.21L63.78,75.28,46.22,29.12C19.58,47.43.32,91.65,15.17,130.57,39.88,195.32,123.36,234.23,136.46,240l10.48-26.66a295.54,295.54,0,0,0,16.72-59.51C167.94,127.94,167.27,104.9,161.82,85.35Z"/><path d="M110.57,26.52c-15.43-6.24-33.14-7.84-46-5.31L79,58.76Z"/><path d="M176.61,20c-2.82,0-5.52.15-8.11.4h-.07c-1.25.13-2.49.27-3.68.44h-.24c-1,.14-1.9.3-2.82.47-.46.08-.91.18-1.37.28l-1.42.3A75,75,0,0,0,148.56,25h-.06c-14.6,5.61-22,13.87-22,13.87l-24.85,25a11.37,11.37,0,0,0-2,2.72,11.73,11.73,0,0,0-.81,2,11.23,11.23,0,0,0-.39,4.24,5.43,5.43,0,0,0,.16,1.06,11.46,11.46,0,0,0,1.66,4,12.15,12.15,0,0,0,1.44,1.76c.24.23.49.44.74.66a10,10,0,0,0,.81.6c.08.06.17.1.25.15s.4.26.61.37l.28.14c.2.11.4.21.61.3l.29.12.63.24.29.08.66.19.28.06a5.39,5.39,0,0,1,.68.12h.29l.67.06h1.94l.47-.07.53-.09.49-.12.49-.14.51-.17.46-.17.52-.24.42-.2c.18-.09.36-.2.54-.31l.36-.22c.2-.13.39-.27.58-.41l.29-.21c.28-.23.55-.47.81-.73l23.91-23.08a12.1,12.1,0,0,1,1.57-1.29h0l.21-.13c.47-.31.91-.64,1.39-.91.25-.15.52-.29.8-.44l.19-.11.92-.43.12-.06a10.08,10.08,0,0,1,1-.38l.22-.09c.36-.14.74-.27,1.13-.39l.23-.07c.36-.1.73-.21,1.11-.3l.2-.05c.43-.1.86-.19,1.31-.27h.3c.44-.07.89-.13,1.35-.17h.09c.48,0,1-.06,1.46-.06h2l1,.12h.09l1,.18H159c.33.07.67.15,1,.25l.2.06c.36.1.71.21,1.07.34h0l1.07.42.2.09a10.3,10.3,0,0,1,1,.49l.19.1a11,11,0,0,1,1,.6h.06c.36.22.71.45,1.07.7l.21.15c.35.25.71.51,1.06.79l.16.13c.33.27.67.56,1,.87l.12.1c.35.32.68.65,1,1l.21.22c.35.36.7.73,1,1.13l.12.15,1,1.19.16.2c.34.44.67.9,1,1.38.07.09.13.19.2.29.34.5.68,1,1,1.54l.07.13c.32.51.63,1,.95,1.6l.17.31c.32.57.64,1.16.95,1.78.06.12.12.25.19.37.32.65.64,1.31,1,2,.21.46.41.91.6,1.36,1,2.21,1.72,4.27,2.32,6,.24.69.45,1.33.63,1.9,12.22,43.32,1.67,91.92-9.62,125.35a3.58,3.58,0,0,0,6,3.64l45-46.51q2.67-2.67,5.16-5.4a93.78,93.78,0,0,0,12.89-17.59h0l.06-.12.08.1.73-1.56c.26-.52.51-1.07.77-1.63.84-1.7,1.61-3.46,2.32-5.26h0c.17-.43.35-.87.51-1.31.68-1.75,1.33-3.64,1.94-5.71.3-1,.59-2.1.86-3.22s.53-2.3.76-3.51.45-2.49.64-3.81.35-2.7.48-4.14c.27-2.88.42-6,.42-9.34C249.94,56.4,218.48,20,176.61,20Z"/></g></svg>