<svg width="180" height="180" viewBox="0 0 180 180" fill="none" xmlns="http://www.w3.org/2000/svg">
<path d="M149.199 121.383H127.433V118.6C127.433 112.583 132.299 107.717 138.316 107.717C144.333 107.717 149.199 112.583 149.199 118.6V121.383Z" fill="#FF7F41"/>
<path d="M147.382 121.383H129.249V119.067C129.249 114.05 133.316 110 138.316 110C143.332 110 147.382 114.067 147.382 119.067V121.383Z" fill="#F5B6CD"/>
<path d="M139 106.5H137.616V107.733H139V106.5Z" fill="#F5B6CD"/>
<path d="M144.749 129.8L141.683 129.267C139.449 128.883 137.183 128.883 134.949 129.267L131.883 129.8C129.566 130.2 127.433 128.417 127.433 126.067V121.4C127.433 121.4 131.499 120.067 138.316 120.067C145.849 120.067 149.199 121.4 149.199 121.4V126.067C149.199 128.417 147.083 130.2 144.749 129.8Z" fill="#FDDA24"/>
<path d="M47.2826 68.55C39.4992 68.55 33.1992 74.85 33.1992 82.6333V84.3667H61.3825V82.6333C61.3659 74.85 55.0659 68.55 47.2826 68.55Z" fill="#9063CD"/>
<path d="M57.8326 94.55H36.7326C34.7826 94.55 33.1992 92.9667 33.1992 91.0167V88.75H61.3825V91.0167C61.3659 92.9667 59.7826 94.55 57.8326 94.55Z" fill="#9063CD"/>
<path d="M60.7 90.1333H33.7833C32.5167 90.1333 31.5 89.1167 31.5 87.85C31.5 86.5833 32.5167 85.5667 33.7833 85.5667H60.7C61.9667 85.5667 62.9833 86.5833 62.9833 87.85C63 89.1 61.9667 90.1333 60.7 90.1333Z" fill="#FF7F41"/>
<path d="M61.3496 83.1C58.5496 82.8166 58.5829 82.7333 55.7663 82.7333C52.9496 82.7333 52.9496 83.8166 50.1329 83.8166C47.3163 83.8166 47.3163 82.7333 44.4996 82.7333C41.6829 82.7333 41.6829 83.8166 38.8663 83.8166C36.0496 83.8166 35.9829 82.45 33.1829 82.7333C32.7496 82.7833 29.8163 85.85 30.2496 85.8833C33.6163 86.2333 33.5829 86.9667 36.9829 86.9667C40.3829 86.9667 40.3829 85.8833 43.7663 85.8833C47.1663 85.8833 47.1663 86.9667 50.5496 86.9667C53.9496 86.9667 53.9496 85.8833 57.3329 85.8833C60.7163 85.8833 60.9496 87.3 64.1663 86.25C64.8996 86.0167 61.7663 83.1333 61.3496 83.1Z" fill="#00C389"/>
<path d="M48.0492 72.5667C48.3713 72.5667 48.6325 72.3055 48.6325 71.9834C48.6325 71.6612 48.3713 71.4 48.0492 71.4C47.727 71.4 47.4658 71.6612 47.4658 71.9834C47.4658 72.3055 47.727 72.5667 48.0492 72.5667Z" fill="#FDDA24"/>
<path d="M37.5667 80.4167C37.8889 80.4167 38.1501 80.1555 38.1501 79.8333C38.1501 79.5112 37.8889 79.25 37.5667 79.25C37.2446 79.25 36.9834 79.5112 36.9834 79.8333C36.9834 80.1555 37.2446 80.4167 37.5667 80.4167Z" fill="#FDDA24"/>
<path d="M40.1165 75.1667C40.4387 75.1667 40.6999 74.9055 40.6999 74.5833C40.6999 74.2612 40.4387 74 40.1165 74C39.7944 74 39.5332 74.2612 39.5332 74.5833C39.5332 74.9055 39.7944 75.1667 40.1165 75.1667Z" fill="#FDDA24"/>
<path d="M45.6165 79.2C45.9387 79.2 46.1999 78.9388 46.1999 78.6167C46.1999 78.2945 45.9387 78.0333 45.6165 78.0333C45.2944 78.0333 45.0332 78.2945 45.0332 78.6167C45.0332 78.9388 45.2944 79.2 45.6165 79.2Z" fill="#FDDA24"/>
<path d="M54.7494 75.75C55.0715 75.75 55.3327 75.4888 55.3327 75.1666C55.3327 74.8445 55.0715 74.5833 54.7494 74.5833C54.4272 74.5833 54.166 74.8445 54.166 75.1666C54.166 75.4888 54.4272 75.75 54.7494 75.75Z" fill="#FDDA24"/>
<path d="M58.6165 80.9833C58.9387 80.9833 59.1999 80.7222 59.1999 80.4C59.1999 80.0778 58.9387 79.8167 58.6165 79.8167C58.2944 79.8167 58.0332 80.0778 58.0332 80.4C58.0332 80.7222 58.2944 80.9833 58.6165 80.9833Z" fill="#FDDA24"/>
<path d="M51.3167 80.9833C51.6389 80.9833 51.9001 80.7222 51.9001 80.4C51.9001 80.0778 51.6389 79.8167 51.3167 79.8167C50.9946 79.8167 50.7334 80.0778 50.7334 80.4C50.7334 80.7222 50.9946 80.9833 51.3167 80.9833Z" fill="#FDDA24"/>
<path d="M136.133 33.6H119.333V28.5333C119.333 23.9 123.1 20.1333 127.733 20.1333C132.366 20.1333 136.133 23.9 136.133 28.5333V33.6ZM121.333 31.6H134.133V28.5333C134.133 25 131.266 22.1333 127.733 22.1333C124.2 22.1333 121.333 25.0166 121.333 28.55V31.6Z" fill="#FDDA24"/>
<path d="M141.7 56.6834H113.75L114.533 30.5834H140.933L141.7 56.6834Z" fill="#9063CD"/>
<path d="M47.4663 116.783C29.4663 116.783 14.833 102.15 14.833 84.1666C14.833 80.4 15.4663 76.7 16.733 73.1666C17.2663 71.7 18.883 70.9333 20.3497 71.45C21.8163 71.9833 22.583 73.6 22.0663 75.0666C21.033 77.9833 20.4997 81.0333 20.4997 84.1666C20.4997 99.0333 32.5997 111.133 47.4663 111.133C62.333 111.133 74.433 99.0333 74.433 84.1666C74.433 79.0166 72.983 74.0166 70.2163 69.7C67.533 65.4833 63.7497 62.1166 59.2663 59.9333C57.8663 59.25 57.283 57.55 57.9663 56.15C58.6497 54.75 60.3497 54.1666 61.7497 54.85C67.1663 57.5 71.7497 61.5833 74.983 66.6666C78.3163 71.9 80.083 77.95 80.083 84.1833C80.083 102.15 65.4497 116.783 47.4663 116.783Z" fill="#FF7F41"/>
<path d="M23.3499 69.4834C22.7666 69.4834 22.1832 69.3001 21.6832 68.9334C20.4166 68.0167 20.1332 66.2334 21.0666 64.9834C24.0332 60.9167 27.9499 57.5334 32.4166 55.2001C37.0332 52.8001 42.2332 51.5334 47.4666 51.5334C49.0332 51.5334 50.2999 52.8001 50.2999 54.3667C50.2999 55.9334 49.0332 57.2001 47.4666 57.2001C43.0832 57.2001 38.8999 58.2167 35.0332 60.2334C31.3499 62.1501 28.0999 64.9501 25.6499 68.3167C25.0999 69.0834 24.2332 69.4834 23.3499 69.4834Z" fill="#FF7F41"/>
<path d="M151.883 100.617C151.483 100.617 151.066 100.5 150.7 100.25C149.916 99.7168 149.083 99.2168 148.233 98.7834C147.216 98.2501 146.816 97.0001 147.333 95.9834C147.866 94.9668 149.116 94.5668 150.133 95.0834C151.133 95.6001 152.1 96.1834 153.033 96.8168C153.983 97.4668 154.216 98.7668 153.566 99.7167C153.2 100.3 152.55 100.617 151.883 100.617Z" fill="#F5B6CD"/>
<path d="M161.9 114.35C161 114.35 160.166 113.767 159.9 112.867C158.95 109.667 157.35 106.767 155.15 104.233C154.4 103.367 154.483 102.05 155.35 101.3C156.216 100.55 157.533 100.633 158.283 101.5C160.883 104.483 162.766 107.917 163.883 111.683C164.216 112.783 163.583 113.95 162.483 114.283C162.3 114.317 162.1 114.35 161.9 114.35Z" fill="#F5B6CD"/>
<path d="M137.517 147.067C122.333 147.067 109.983 134.717 109.983 119.533C109.983 104.35 122.333 92 137.517 92C138.667 92 139.6 92.9333 139.6 94.0833C139.6 95.2333 138.667 96.1667 137.517 96.1667C124.633 96.1833 114.167 106.667 114.167 119.55C114.167 132.433 124.65 142.917 137.533 142.917C150.417 142.917 160.9 132.433 160.9 119.55C160.9 119.217 160.9 118.867 160.883 118.533C160.833 117.383 161.733 116.417 162.883 116.367C164.033 116.317 165 117.217 165.05 118.367C165.067 118.767 165.083 119.167 165.083 119.567C165.05 134.717 152.7 147.067 137.517 147.067Z" fill="#F5B6CD"/>
<path d="M127.666 73.85C109.55 73.85 94.8164 59.1167 94.8164 41C94.8164 22.9 109.55 8.16669 127.666 8.16669C134.416 8.16669 140.9 10.2 146.433 14.05C151.833 17.8167 155.933 23.0167 158.3 29.1334C158.85 30.55 158.15 32.15 156.733 32.7C155.316 33.25 153.716 32.55 153.166 31.1334C151.2 26.05 147.783 21.7167 143.283 18.5834C138.683 15.3667 133.283 13.6667 127.666 13.6667C112.583 13.6667 100.316 25.9334 100.316 41.0167C100.316 56.1 112.583 68.3667 127.666 68.3667C132.333 68.3667 136.933 67.1667 140.983 64.9167C142.316 64.1834 143.983 64.65 144.733 65.9834C145.466 67.3167 145 68.9834 143.666 69.7334C138.783 72.4167 133.266 73.85 127.666 73.85Z" fill="#00C389"/>
<path d="M153.449 59.2666C152.966 59.2666 152.483 59.1333 152.033 58.8666C150.733 58.0833 150.316 56.3999 151.099 55.0999C153.649 50.8666 154.999 45.9999 154.999 41.0166C154.999 39.4999 156.233 38.2666 157.749 38.2666C159.266 38.2666 160.499 39.4999 160.499 41.0166C160.499 46.9999 158.883 52.8499 155.816 57.9333C155.299 58.7833 154.383 59.2666 153.449 59.2666Z" fill="#00C389"/>
<path d="M96.0833 171.95C114.622 171.95 129.65 156.922 129.65 138.383C129.65 119.845 114.622 104.817 96.0833 104.817C77.5449 104.817 62.5166 119.845 62.5166 138.383C62.5166 156.922 77.5449 171.95 96.0833 171.95Z" fill="#E4AC7B"/>
<path d="M111.65 150.867L72.883 150.883C68.733 150.883 65.3663 147.517 65.3663 143.367L65.333 55.6834C65.333 51.5334 68.6997 48.1668 72.8497 48.1668L111.616 48.1501C115.766 48.1501 119.133 51.5168 119.133 55.6668L119.166 143.35C119.183 147.5 115.816 150.867 111.65 150.867Z" fill="#59CBE8"/>
<path d="M92.2663 148.3C94.1533 148.3 95.6829 146.77 95.6829 144.883C95.6829 142.996 94.1533 141.467 92.2663 141.467C90.3793 141.467 88.8496 142.996 88.8496 144.883C88.8496 146.77 90.3793 148.3 92.2663 148.3Z" fill="white"/>
<path d="M115.116 59.5668L115.133 138.25H115.116L69.3995 138.267V129.2L69.3662 59.5834L115.116 59.5668Z" fill="white"/>
<path d="M103.333 80.9001L79.6329 83.5668C78.2329 83.7168 77.0996 85.1001 77.0996 86.6501V101.55C77.0996 103.1 78.2329 104.217 79.6329 104.05L103.333 101.383C104.733 101.233 105.866 99.8501 105.866 98.3001V86.2001V83.4001C105.866 81.8668 104.733 80.7501 103.333 80.9001Z" fill="#FF7F41"/>
<path d="M79.8662 84.6334L101.9 78.9334L102.016 86.5667L79.8662 84.6334Z" fill="#59CBE8"/>
<path d="M79.8662 84.6334L105 80.0334V87.8501L79.8662 84.6334Z" fill="#00C389"/>
<path d="M104.516 85.2834L79.733 84.0001C78.2663 83.9167 77.083 85.1167 77.083 86.6501V101.55C77.083 103.1 78.2663 104.4 79.733 104.483L104.5 105.767C105.966 105.85 107.15 104.65 107.15 103.117V91.0167V88.2167C107.166 86.6667 105.983 85.3667 104.516 85.2834Z" fill="#9063CD"/>
<path d="M103.666 97.2334C104.412 97.2334 105.016 96.629 105.016 95.8834C105.016 95.1378 104.412 94.5334 103.666 94.5334C102.921 94.5334 102.316 95.1378 102.316 95.8834C102.316 96.629 102.921 97.2334 103.666 97.2334Z" fill="#FDDA24"/>
<path d="M115.116 129.183H69.3994V138.267H115.116V129.183Z" fill="#FDDA24"/>
<path d="M69.3164 138.35V129.1H69.3997L115.2 129.083V138.333H115.116L69.3164 138.35ZM69.4831 129.283V138.2L115.033 138.183V129.267L69.4831 129.283Z" fill="#FDDA24"/>
<path d="M128.683 141.9C127.549 147.183 125.283 152.217 122.016 156.617C121.283 157.6 120.683 158.767 120.183 160.033C119.599 161.5 115.233 163.683 113.633 162.833L104.233 150.917C103.866 149.45 103.666 147.917 103.666 146.333C103.666 140.05 106.766 134.5 111.516 131.117C113.033 130.033 113.333 129.7 115.133 129.117V121.15L108.049 106.583C105.266 102.25 106.533 96.5001 110.849 93.7167C111.033 93.6 111.233 93.55 111.433 93.55C111.783 93.55 112.133 93.7167 112.333 94.05L119.983 105.967L126.599 116.183C128.166 118.6 129.049 121.383 129.183 124.267L129.349 127.95L129.399 129.033V129.067L129.533 132.05C129.666 135.383 129.383 138.683 128.683 141.9Z" fill="#E4AC7B"/>
<path d="M104.25 150.917L113.65 162.833C109.017 160.4 105.55 156.1 104.25 150.917Z" fill="#E4AC7B"/>
<path d="M63.0161 137.333L57.5494 130.467C55.3661 127.733 55.8161 123.75 58.5661 121.567L63.5161 117.617L72.9327 129.433C75.1161 132.167 74.6661 136.15 71.9327 138.333C69.1827 140.517 65.1994 140.067 63.0161 137.333Z" fill="#E4AC7B"/>
<path d="M63.0161 124.533L57.5494 117.667C55.3661 114.933 55.8161 110.95 58.5661 108.767L63.5161 104.817L72.9327 116.633C75.1161 119.367 74.6661 123.35 71.9161 125.533C69.1661 127.717 65.1827 127.267 63.0161 124.533Z" fill="#E4AC7B"/>
<path d="M63.0164 111.717L57.5497 104.85C55.3664 102.117 55.8164 98.1335 58.5497 95.9501L63.4997 92.0001L72.9164 103.817C75.0997 106.55 74.6497 110.533 71.8997 112.717C69.1664 114.917 65.1831 114.467 63.0164 111.717Z" fill="#E4AC7B"/>
<path d="M63.5 79.2168L65.35 77.8168V84.6334L63.5 79.2168Z" fill="#E4AC7B"/>
<path d="M62.9995 98.9167L57.5328 92.0501C55.3495 89.3167 55.7995 85.3334 58.5495 83.1501L63.4995 79.2001L72.9161 91.0167C75.0995 93.7501 74.6495 97.7334 71.9161 99.9167C69.1661 102.1 65.1828 101.65 62.9995 98.9167Z" fill="#E4AC7B"/>
<path d="M127.733 49.4501C131.82 49.4501 135.133 46.8459 135.133 43.6334C135.133 40.421 131.82 37.8168 127.733 37.8168C123.646 37.8168 120.333 40.421 120.333 43.6334C120.333 46.8459 123.646 49.4501 127.733 49.4501Z" fill="#FF7F41"/>
</svg>
