<svg width="180" height="180" viewBox="0 0 180 180" fill="none" xmlns="http://www.w3.org/2000/svg">
<path d="M146.567 111.542C145.534 111.542 144.567 110.925 144.167 109.925C143.184 107.475 138.567 105.342 135.867 104.558C134.5 104.158 133.7 102.742 134.1 101.358C134.5 99.9917 135.917 99.1917 137.284 99.5917C137.384 99.6251 139.584 100.258 142.05 101.508C145.634 103.325 147.95 105.508 148.95 108.008C149.484 109.325 148.834 110.842 147.517 111.358C147.2 111.475 146.884 111.542 146.567 111.542Z" fill="#59CBE8"/>
<path d="M64.8001 82.1749C64.3334 82.1749 63.8667 82.0416 63.4334 81.7916C52.7667 75.1583 47.1001 67.5916 46.8667 67.2583C46.0167 66.1083 46.2667 64.4916 47.4001 63.6416C48.5501 62.7916 50.1667 63.0416 51.0167 64.175C51.1001 64.2916 56.4167 71.325 66.1667 77.3916C67.3834 78.1416 67.7501 79.7416 67.0001 80.9416C66.5167 81.7416 65.6667 82.1749 64.8001 82.1749Z" fill="#59CBE8"/>
<path d="M125.9 132.142C125.717 132.142 125.517 132.125 125.317 132.075C120.883 131.058 107.1 128.258 106.967 128.225C105.567 127.942 104.667 126.575 104.95 125.175C105.233 123.775 106.6 122.875 108 123.158C108.567 123.275 121.983 126.008 126.467 127.025C127.85 127.342 128.733 128.725 128.417 130.125C128.15 131.325 127.083 132.142 125.9 132.142Z" fill="#59CBE8"/>
<path d="M23.7169 163.142C23.4169 163.142 23.1169 163.092 22.8169 162.975C21.4835 162.475 20.8002 160.992 21.2835 159.658C25.5669 148.092 37.1002 138.308 37.5835 137.892C38.6835 136.975 40.3002 137.108 41.2169 138.208C42.1335 139.308 42.0002 140.925 40.9002 141.842C40.7835 141.942 29.9169 151.175 26.1169 161.442C25.7502 162.492 24.7669 163.142 23.7169 163.142Z" fill="#59CBE8"/>
<path d="M87.0169 85.7083C86.7002 85.7083 86.3835 85.675 86.0669 85.5916C66.4336 81.075 49.1002 67.7416 39.7169 49.925C38.6169 47.8416 39.4169 45.275 41.5002 44.1916C43.5836 43.0916 46.1502 43.8916 47.2336 45.975C55.4836 61.6416 70.7169 73.3583 87.9669 77.325C90.2502 77.8583 91.6835 80.125 91.1502 82.425C90.7002 84.375 88.9502 85.7083 87.0169 85.7083Z" fill="#9063CD"/>
<path d="M58.0502 20.975H20.3335V70.325H58.0502V20.975Z" fill="#F5B6CD"/>
<path d="M140.717 129.958C138.783 129.958 137.033 128.625 136.583 126.658C136.05 124.375 137.483 122.092 139.767 121.558C140.7 121.342 141.517 121.042 142.283 120.658C145.9 118.775 148 114.042 146.967 110.108C145.917 106.158 141.767 103.092 137.683 103.258C135.35 103.358 133.367 101.525 133.267 99.175C133.167 96.825 135 94.8583 137.35 94.7583C141.25 94.6083 145.217 95.8583 148.517 98.3083C151.817 100.742 154.2 104.175 155.183 107.942C156.183 111.708 155.817 115.858 154.15 119.608C152.483 123.358 149.667 126.425 146.2 128.208C144.817 128.925 143.3 129.475 141.7 129.842C141.35 129.908 141.033 129.958 140.717 129.958Z" fill="#9063CD"/>
<path d="M121.7 128.575C121.433 128.575 121.167 128.558 120.9 128.492C119.683 128.258 118.467 128.025 117.25 127.792C113.633 127.092 109.883 126.358 106.217 125.808C100.833 125.008 96.2168 124.742 92.1001 124.958C89.7501 125.092 87.7501 123.292 87.6334 120.942C87.5001 118.592 89.3001 116.592 91.6501 116.475C96.3501 116.225 101.533 116.525 107.483 117.408C111.333 117.975 115.183 118.725 118.9 119.458C120.1 119.692 121.3 119.925 122.517 120.158C124.817 120.592 126.333 122.825 125.9 125.125C125.483 127.158 123.7 128.575 121.7 128.575Z" fill="#9063CD"/>
<path d="M30.2503 147.042C29.3003 147.042 28.3336 146.725 27.5503 146.075C25.7336 144.575 25.4836 141.908 26.9836 140.092C33.167 132.608 41.6836 126.958 50.967 124.175C53.217 123.508 55.5836 124.775 56.267 127.025C56.9503 129.275 55.667 131.642 53.417 132.325C45.717 134.642 38.667 139.325 33.5503 145.525C32.7003 146.508 31.4836 147.042 30.2503 147.042Z" fill="#9063CD"/>
<path d="M77.7836 107.992H48.8169V145.908H77.7836V107.992Z" fill="#FF7F41"/>
<path d="M73.6001 120.158H53.1001C52.6167 120.158 52.2334 119.775 52.2334 119.292C52.2334 118.808 52.6167 118.425 53.1001 118.425H73.6001C74.0834 118.425 74.4667 118.808 74.4667 119.292C74.4667 119.775 74.0834 120.158 73.6001 120.158Z" fill="white"/>
<path d="M73.6001 127.008H53.1001C52.6167 127.008 52.2334 126.625 52.2334 126.142C52.2334 125.658 52.6167 125.275 53.1001 125.275H73.6001C74.0834 125.275 74.4667 125.658 74.4667 126.142C74.4667 126.625 74.0834 127.008 73.6001 127.008Z" fill="white"/>
<path d="M73.6001 133.842H53.1001C52.6167 133.842 52.2334 133.458 52.2334 132.975C52.2334 132.492 52.6167 132.108 53.1001 132.108H73.6001C74.0834 132.108 74.4667 132.492 74.4667 132.975C74.4667 133.458 74.0834 133.842 73.6001 133.842Z" fill="white"/>
<path d="M73.6001 140.692H53.1001C52.6167 140.692 52.2334 140.308 52.2334 139.825C52.2334 139.342 52.6167 138.958 53.1001 138.958H73.6001C74.0834 138.958 74.4667 139.342 74.4667 139.825C74.4667 140.308 74.0834 140.692 73.6001 140.692Z" fill="white"/>
<path d="M58.6003 33.8583C58.1836 33.8583 57.7836 33.7083 57.4669 33.3916L53.0336 28.9583C52.4003 28.325 52.4003 27.3083 53.0336 26.6916C53.6669 26.0583 54.6836 26.0583 55.3003 26.6916L58.6003 29.9916L71.2836 17.3083C71.9169 16.675 72.9336 16.675 73.5502 17.3083C74.1836 17.9416 74.1836 18.9583 73.5502 19.575L59.7336 33.3916C59.4336 33.6916 59.0169 33.8583 58.6003 33.8583Z" fill="#00C389"/>
<path d="M65.3503 115.758C64.9336 115.758 64.5336 115.608 64.2169 115.292L59.7836 110.858C59.1503 110.225 59.1503 109.208 59.7836 108.592C60.4169 107.958 61.4336 107.958 62.0503 108.592L65.3503 111.892L78.0336 99.2084C78.6669 98.5751 79.6836 98.5751 80.3003 99.2084C80.9336 99.8417 80.9336 100.858 80.3003 101.475L66.4836 115.292C66.1669 115.608 65.7669 115.758 65.3503 115.758Z" fill="#00C389"/>
<path d="M110.867 119.392C110.733 119.392 110.583 119.375 110.45 119.358C100.233 117.675 93.4334 117.725 89.5334 118.042C85.3167 118.392 83.4834 119.158 83.4667 119.158L83.5 119.142L81.3667 114.442C81.7 114.292 89.8834 110.725 111.3 114.242C112.7 114.475 113.667 115.808 113.433 117.208C113.217 118.492 112.117 119.392 110.867 119.392Z" fill="#F5B6CD"/>
<path d="M91.8668 79.9583C91.7668 79.9583 91.6668 79.9583 91.5501 79.9416C80.2668 78.5916 69.9334 71.0583 69.5001 70.7416C68.3501 69.8916 68.1001 68.2749 68.9501 67.1249C69.8001 65.9749 71.4168 65.7249 72.5668 66.5749C72.7168 66.6916 82.2835 73.6249 92.1668 74.8083C93.5835 74.9749 94.6001 76.2583 94.4335 77.6749C94.2835 78.9916 93.1668 79.9583 91.8668 79.9583Z" fill="#F5B6CD"/>
<path d="M156.4 121.508C156.184 121.508 155.967 121.475 155.75 121.425C154.367 121.075 153.534 119.658 153.9 118.275C156.734 107.358 150.034 101.158 149.75 100.908C148.684 99.9583 148.584 98.3417 149.517 97.275C150.467 96.2083 152.1 96.1083 153.167 97.0417C153.55 97.375 162.534 105.492 158.884 119.575C158.6 120.742 157.55 121.508 156.4 121.508Z" fill="#F5B6CD"/>
<path d="M52.6003 36.825H25.917C25.2837 36.825 24.7837 36.3084 24.7837 35.6917C24.7837 35.075 25.3004 34.5583 25.917 34.5583H52.6003C53.2337 34.5583 53.7337 35.075 53.7337 35.6917C53.7337 36.3084 53.2337 36.825 52.6003 36.825Z" fill="white"/>
<path d="M52.6003 45.7251H25.917C25.2837 45.7251 24.7837 45.2084 24.7837 44.5917C24.7837 43.975 25.3004 43.4584 25.917 43.4584H52.6003C53.2337 43.4584 53.7337 43.975 53.7337 44.5917C53.7337 45.2084 53.2337 45.7251 52.6003 45.7251Z" fill="white"/>
<path d="M52.6003 54.6417H25.917C25.2837 54.6417 24.7837 54.1251 24.7837 53.5084C24.7837 52.8917 25.3004 52.3751 25.917 52.3751H52.6003C53.2337 52.3751 53.7337 52.8917 53.7337 53.5084C53.7337 54.1251 53.2337 54.6417 52.6003 54.6417Z" fill="white"/>
<path d="M52.6003 63.5417H25.917C25.2837 63.5417 24.7837 63.025 24.7837 62.4083C24.7837 61.7917 25.3004 61.275 25.917 61.275H52.6003C53.2337 61.275 53.7337 61.7917 53.7337 62.4083C53.7337 63.025 53.2337 63.5417 52.6003 63.5417Z" fill="white"/>
<path d="M140.55 56.7916H102.833V106.142H140.55V56.7916Z" fill="#FDDA24"/>
<path d="M135.1 72.6251H108.417C107.784 72.6251 107.284 72.1084 107.284 71.4917C107.284 70.8751 107.8 70.3584 108.417 70.3584H135.1C135.734 70.3584 136.234 70.8751 136.234 71.4917C136.234 72.1084 135.734 72.6251 135.1 72.6251Z" fill="white"/>
<path d="M135.1 81.5251H108.417C107.784 81.5251 107.284 81.0084 107.284 80.3918C107.284 79.7751 107.8 79.2584 108.417 79.2584H135.1C135.734 79.2584 136.234 79.7751 136.234 80.3918C136.234 81.0084 135.734 81.5251 135.1 81.5251Z" fill="white"/>
<path d="M135.1 90.4417H108.417C107.784 90.4417 107.284 89.925 107.284 89.3084C107.284 88.6917 107.8 88.175 108.417 88.175H135.1C135.734 88.175 136.234 88.6917 136.234 89.3084C136.234 89.925 135.734 90.4417 135.1 90.4417Z" fill="white"/>
<path d="M135.1 99.3418H108.417C107.784 99.3418 107.284 98.8251 107.284 98.2084C107.284 97.5917 107.8 97.0751 108.417 97.0751H135.1C135.734 97.0751 136.234 97.5917 136.234 98.2084C136.234 98.8251 135.734 99.3418 135.1 99.3418Z" fill="white"/>
<path d="M132.217 65.2917C131.8 65.2917 131.4 65.1417 131.084 64.8251L126.65 60.3917C126.017 59.7584 126.017 58.7417 126.65 58.1251C127.284 57.4917 128.3 57.4917 128.917 58.1251L132.217 61.4251L144.9 48.7417C145.534 48.1084 146.55 48.1084 147.167 48.7417C147.8 49.3751 147.8 50.3917 147.167 51.0084L133.35 64.8251C133.034 65.1417 132.617 65.2917 132.217 65.2917Z" fill="#00C389"/>
</svg>
