<svg width="180" height="180" viewBox="0 0 180 180" fill="none" xmlns="http://www.w3.org/2000/svg">
<path d="M104.034 109.233C104.317 107.1 104.834 104.983 105.584 102.917C107.7 97.0833 111.65 91.6833 117.167 87.0333H137.184L140.334 91.9333C136.35 93.1333 133.984 99.2167 134.034 106.167L148.534 104.683L144.117 97.8167L137.184 87.0333H57.9004L81.4837 111.567L104.034 109.233Z" fill="#00C389"/>
<path d="M53.0831 87.0167H42.6331L34.0498 100.35L62.4165 96.7333L53.0831 87.0167Z" fill="#FF7F41"/>
<path d="M65.4167 99.85L31.6 104.167L23 117.533L77.1 112L65.4167 99.85Z" fill="#00C389"/>
<path d="M150.633 107.95L134.25 109.633C135.2 117.433 139.183 125.467 147.25 128.433H135.633H107.733C105.033 123.4 103.7 118.05 103.767 112.75L84.5166 114.717L97.6999 128.417H163.8L150.633 107.95Z" fill="#F5B6CD"/>
<path d="M20.6 121.267L16 128.417H92.9L80.15 115.167L20.6 121.267Z" fill="#9063CD"/>
<path d="M140.333 91.9167L137.183 87.0167H117.167C111.65 91.6667 107.7 97.0667 105.583 102.9C104.833 104.967 104.317 107.083 104.033 109.217L134.033 106.15C133.983 99.2167 136.333 93.1167 140.333 91.9167Z" fill="#59CBE8"/>
<path d="M107.734 128.417H135.634H147.25C139.184 125.45 135.184 117.417 134.25 109.617L103.767 112.733C103.7 118.05 105.034 123.383 107.734 128.417Z" fill="#59CBE8"/>
<path d="M148.533 104.667L134.033 106.167L104.033 109.233L81.4829 111.55L57.8996 87.0167H53.0829L62.4163 96.7333L65.8496 96.2833L66.2829 99.7333L65.4163 99.85L77.0996 112L22.9996 117.533L20.5996 121.267L80.1496 115.167L92.8996 128.417H97.6996L84.533 114.717L103.783 112.75L134.25 109.633L150.633 107.95L148.533 104.667Z" fill="white"/>
<path d="M34.0496 100.35L31.5996 104.167L65.4162 99.8501L62.4163 96.7334L34.0496 100.35Z" fill="white"/>
<path d="M65.8503 96.2833L62.417 96.7333L65.417 99.85L66.2837 99.7333L65.8503 96.2833Z" fill="white"/>
<path d="M89.9493 47.5833C78.6159 47.5833 69.4326 56.7666 69.4326 68.1C69.4326 87.0166 89.9493 103.883 89.9493 103.883C89.9493 103.883 110.466 87.0166 110.466 68.1C110.466 56.7666 101.283 47.5833 89.9493 47.5833ZM89.9493 79.8166C83.4826 79.8166 78.2326 74.5666 78.2326 68.1C78.2326 61.6333 83.4826 56.3833 89.9493 56.3833C96.4159 56.3833 101.666 61.6333 101.666 68.1C101.666 74.5666 96.4159 79.8166 89.9493 79.8166Z" fill="#FDDA24"/>
<path d="M89.9496 104L89.8996 103.95C89.8496 103.9 84.6996 99.65 79.6329 93.1333C74.9496 87.1167 69.3496 77.9 69.3496 68.1C69.3496 56.75 78.583 47.5 89.9496 47.5C101.316 47.5 110.55 56.75 110.55 68.1C110.55 73.5 108.766 82.2333 100.266 93.1333C95.183 99.65 90.0496 103.9 89.9996 103.95L89.9496 104ZM89.9496 47.6667C78.683 47.6667 69.5163 56.8333 69.5163 68.1C69.5163 73.4833 71.2996 82.1667 79.7496 93.0333C84.533 99.1833 89.383 103.317 89.9496 103.783C90.4996 103.317 95.3496 99.1833 100.15 93.0333C104.816 87.0333 110.383 77.85 110.383 68.1C110.383 56.8333 101.216 47.6667 89.9496 47.6667ZM89.9496 79.9C83.4496 79.9 78.1496 74.6 78.1496 68.1C78.1496 61.6 83.4496 56.3 89.9496 56.3C96.4496 56.3 101.75 61.6 101.75 68.1C101.75 74.6167 96.4496 79.9 89.9496 79.9ZM89.9496 56.4667C83.533 56.4667 78.3163 61.6833 78.3163 68.1C78.3163 74.5167 83.533 79.7333 89.9496 79.7333C96.3663 79.7333 101.583 74.5167 101.583 68.1C101.583 61.6833 96.3663 56.4667 89.9496 56.4667Z" fill="#FDDA24"/>
<path d="M92.9 128.417H16V132.617H92.9V128.417Z" fill="#00C389"/>
<path d="M163.967 128.417H98V132.617H163.967V128.417Z" fill="#FF7F41"/>
<path d="M97.717 128.417H92.9004V132.617H97.717V128.417Z" fill="white"/>
</svg>
