<svg width="180" height="180" viewBox="0 0 180 180" fill="none" xmlns="http://www.w3.org/2000/svg">
<path d="M45.2318 61.2224C47.7206 58.6225 47.4363 54.3115 44.597 51.5936C41.7577 48.8757 37.4384 48.7801 34.9496 51.3801C32.4609 53.98 32.7451 58.291 35.5844 61.0089C38.4238 63.7268 42.7431 63.8224 45.2318 61.2224Z" fill="#E4AC7B"/>
<path d="M60.92 96.0001C60.67 96.0001 60.42 95.9334 60.1867 95.8001C53.32 91.6501 47.42 83.5834 47.17 83.2501C46.7034 82.6167 46.8534 81.7334 47.4867 81.2667C48.12 80.8 49.0034 80.95 49.47 81.5834C49.5367 81.6834 55.3034 89.5334 61.6534 93.3834C62.32 93.7834 62.5367 94.6501 62.1367 95.3334C61.87 95.7501 61.4034 96.0001 60.92 96.0001Z" fill="#F5B6CD"/>
<path d="M69.337 97.4334C69.1036 97.4334 68.8703 97.3834 68.637 97.3001C57.1703 92.7334 47.8203 83.1001 43.6203 71.5001C43.2703 70.5167 43.7703 69.4334 44.7536 69.0834C45.737 68.7334 46.8203 69.2334 47.1703 70.2167C51.0203 80.8167 59.5703 89.6334 70.037 93.8001C71.0036 94.1834 71.4703 95.2834 71.087 96.2501C70.787 96.9834 70.087 97.4334 69.337 97.4334Z" fill="#FDDA24"/>
<path d="M29.4873 68.3667L42.004 96.4667L52.954 97.7167C52.9706 97.7167 67.554 56.2167 29.4873 68.3667Z" fill="#59CBE8"/>
<path d="M39.0211 153.167C38.8211 153.167 38.6211 153.15 38.4211 153.117C36.7377 152.783 35.6211 151.167 35.9544 149.467C36.0044 149.167 41.6544 119.85 43.8544 103.85C44.0877 102.15 45.6544 100.95 47.3544 101.183C49.0544 101.417 50.2544 102.983 50.0211 104.683C47.8044 120.85 42.1377 150.333 42.0711 150.617C41.7877 152.133 40.4711 153.167 39.0211 153.167Z" fill="#9063CD"/>
<path d="M36.7376 112.267C36.7376 112.267 34.9043 127.7 28.1543 137.283L36.7376 112.267Z" fill="white"/>
<path d="M28.1542 139.583C27.6875 139.583 27.2209 139.45 26.8209 139.167C25.7709 138.433 25.5209 136.983 26.2542 135.933C32.5709 126.95 34.4209 112.133 34.4375 111.983C34.5875 110.717 35.7375 109.8 37.0042 109.95C38.2709 110.1 39.1875 111.25 39.0375 112.517C38.9542 113.167 37.0542 128.65 30.0542 138.583C29.5875 139.25 28.8709 139.583 28.1542 139.583Z" fill="#00C389"/>
<path d="M22.4374 153.883C21.6207 153.883 20.8207 153.567 20.2041 152.95C19.0041 151.717 19.0207 149.75 20.2541 148.55C32.1041 136.983 36.7874 111.333 36.8374 111.083C37.1374 109.383 38.7541 108.267 40.4541 108.567C42.1541 108.867 43.2708 110.483 42.9708 112.183C42.7708 113.317 37.9041 140.033 24.6041 153.017C24.0041 153.6 23.2207 153.883 22.4374 153.883Z" fill="#FDDA24"/>
<path d="M34.0045 72.5666C33.8378 72.5666 33.6545 72.55 33.4878 72.5C28.3045 71.0333 23.7545 67.8166 20.6378 63.4333C17.5212 59.05 15.9878 53.6833 16.3045 48.3167C16.3712 47.3 16.5045 46.3167 16.7045 45.3667C16.9212 44.35 17.9212 43.7 18.9545 43.9167C19.9878 44.1333 20.6212 45.1333 20.4045 46.1667C20.2378 46.9333 20.1378 47.7333 20.0878 48.55C19.8212 53.0667 21.1212 57.5833 23.7378 61.2667C26.3545 64.95 30.1878 67.65 34.5378 68.8833C35.5378 69.1666 36.1212 70.2166 35.8378 71.2166C35.5878 72.0333 34.8212 72.5666 34.0045 72.5666Z" fill="#9063CD"/>
<path d="M31.5538 74.1334C31.4205 74.1334 31.3038 74.1167 31.1705 74.0834C25.8705 72.5834 21.4538 69.3 18.4372 64.6C16.1538 61.0667 15.4538 57.9834 15.4372 57.85C15.2705 57.0834 15.7538 56.3334 16.5205 56.1667C17.2872 56 18.0372 56.4834 18.2038 57.2334C18.2205 57.2834 18.8538 60.05 20.8872 63.15C23.5705 67.2667 27.2872 70.0167 31.9538 71.35C32.7038 71.5667 33.1372 72.35 32.9205 73.1C32.7372 73.7334 32.1705 74.1334 31.5538 74.1334Z" fill="#FDDA24"/>
<path d="M13.4374 51.7C12.6874 51.7 12.0708 51.1167 12.0208 50.3667C12.0041 49.9167 11.8208 45.9834 12.9541 43.8834C13.3208 43.2 14.1874 42.9334 14.8708 43.3C15.5541 43.6667 15.8208 44.5334 15.4541 45.2167C14.8874 46.2834 14.7874 48.85 14.8541 50.2C14.9041 50.9834 14.3041 51.65 13.5208 51.6834C13.4874 51.7 13.4708 51.7 13.4374 51.7Z" fill="#FDDA24"/>
<path d="M46.621 91.8167H54.421L49.071 116.75H19.4043L20.171 113.183C22.8543 100.717 33.871 91.8167 46.621 91.8167Z" fill="#2C2A29"/>
<path d="M131.353 84.8667C130.653 84.8667 129.987 84.8334 129.37 84.7667C124.52 84.2834 121.387 82.1667 121.253 82.0834C120.37 81.4834 120.153 80.2667 120.753 79.3834C121.353 78.5 122.553 78.2834 123.437 78.8834C123.503 78.9167 126.037 80.5834 129.937 80.9334C135.17 81.4 140.337 79.3834 145.253 74.95C146.053 74.2334 147.27 74.3 147.987 75.1C148.703 75.9 148.637 77.1167 147.837 77.8334C141.603 83.4667 135.687 84.8667 131.353 84.8667Z" fill="#00C389"/>
<path d="M141.603 84.45C141.137 84.45 140.687 84.1834 140.47 83.75C140.17 83.1334 140.42 82.3834 141.053 82.0667C144.537 80.3667 147.803 77.7 150.77 74.15C151.22 73.6167 152.003 73.55 152.537 73.9834C153.07 74.4334 153.137 75.2167 152.703 75.75C149.52 79.5834 145.97 82.4667 142.17 84.3167C141.987 84.4167 141.787 84.45 141.603 84.45Z" fill="#59CBE8"/>
<path d="M130.954 86.85H130.937C125.054 86.75 120.987 84.6166 120.821 84.5166C120.204 84.1833 119.987 83.4333 120.304 82.8167C120.637 82.2 121.387 81.9833 122.004 82.3C122.071 82.3333 125.754 84.25 130.987 84.3333C131.687 84.35 132.237 84.9166 132.221 85.6C132.187 86.3 131.637 86.85 130.954 86.85Z" fill="#59CBE8"/>
<path d="M116.787 153.433H69.7039C65.0372 153.433 61.2539 149.65 61.2539 144.983V34.6167C61.2539 29.95 65.0372 26.1667 69.7039 26.1667H116.787C121.454 26.1667 125.237 29.95 125.237 34.6167V144.967C125.254 149.65 121.471 153.433 116.787 153.433Z" fill="#FF7F41"/>
<path d="M93.2538 149.183C95.4538 149.183 97.2372 147.4 97.2372 145.2C97.2372 143 95.4538 141.217 93.2538 141.217C91.0539 141.217 89.2705 143 89.2705 145.2C89.2705 147.4 91.0539 149.183 93.2538 149.183Z" fill="white"/>
<path d="M120.804 38.9H65.6875V137.117H120.804V38.9Z" fill="white"/>
<path d="M82.3877 77.6333C82.5544 78.3 83.2377 78.6333 83.9211 78.4167C89.5377 76.7 95.1544 75.5333 100.954 74.6833C101.621 74.6 101.988 73.9167 101.738 73.2333C101.221 71.8 100.954 71.0667 100.438 69.6333C100.221 69.0333 99.6044 68.6333 98.9877 68.7C93.3211 69.4 87.8377 70.4167 82.3544 72C81.6378 72.2167 81.2044 73.0167 81.3877 73.7167C81.7711 75.2833 81.9711 76.0667 82.3877 77.6333Z" fill="#2C2A29"/>
<path d="M105.121 78.4167C104.904 77.7666 104.304 77.35 103.721 77.4166C94.8374 78.5333 86.2041 80.7167 78.0041 84.3167C77.4041 84.6 77.0541 85.35 77.1708 86C77.4874 87.6833 77.6541 88.5167 77.9874 90.2C78.1208 90.9167 78.8041 91.25 79.4708 90.9333C87.7874 87.15 96.5874 84.75 105.621 83.3167C106.187 83.2167 106.487 82.5667 106.271 81.9C105.821 80.5 105.587 79.8 105.121 78.4167Z" fill="#2C2A29"/>
<path d="M105.087 87.8C104.871 87.1166 104.221 86.6666 103.621 86.7833C98.0707 87.9833 92.654 89.4166 87.304 91.2333C86.6207 91.4833 86.2374 92.2 86.4207 92.85C86.854 94.4166 87.054 95.1833 87.4873 96.75C87.6873 97.4833 88.5207 97.8666 89.2873 97.5666C94.654 95.6666 100.071 94 105.604 92.6666C106.137 92.5333 106.404 91.9166 106.204 91.2833C105.754 89.9 105.537 89.2 105.087 87.8Z" fill="#2C2A29"/>
<path d="M161.004 95.1167L161.038 148.033C161.038 150.617 158.938 152.717 156.354 152.717C153.938 152.717 151.938 150.85 151.688 148.5L146.454 95.85C146.054 91.85 148.988 88.2667 152.988 87.8834C156.988 87.4834 160.571 90.4167 160.954 94.4167C161.004 94.6334 161.004 94.8834 161.004 95.1167Z" fill="#2C2A29"/>
<path d="M151.854 96.8667L140.121 149.067C139.554 151.617 137.004 153.233 134.454 152.65C132.054 152.117 130.488 149.817 130.788 147.433L137.504 94.35C138.004 90.35 141.654 87.5334 145.654 88.0334C149.654 88.5334 152.471 92.1834 151.971 96.1834C151.954 96.4167 151.904 96.65 151.854 96.8667Z" fill="#2C2A29"/>
<path d="M151.14 60.8297C152.61 57.1551 151.211 53.1394 148.015 51.8605C144.819 50.5816 141.036 52.5237 139.566 56.1983C138.095 59.873 139.494 63.8886 142.69 65.1676C145.886 66.4465 149.669 64.5043 151.14 60.8297Z" fill="#B28038"/>
<path d="M149.638 101.583H148.238C142.638 101.583 138.104 97.0501 138.104 91.4501V90.55H159.754V91.4501C159.771 97.0501 155.221 101.583 149.638 101.583Z" fill="#2C2A29"/>
<path d="M157.438 66.95L162.804 97.7L135.321 99.0167C135.304 99.0167 132.604 67.3 157.438 66.95Z" fill="#E6DCCB"/>
<path d="M154.554 71.9167C153.821 71.9167 153.121 71.5 152.804 70.8C152.354 69.8334 152.771 68.6834 153.738 68.2334C153.804 68.2 156.521 66.85 158.804 63.6834C161.871 59.4167 162.754 53.95 161.438 47.45C161.221 46.4 161.904 45.3834 162.954 45.1667C164.004 44.95 165.021 45.6334 165.238 46.6834C167.188 56.2667 164.454 62.55 161.821 66.1334C158.938 70.0667 155.538 71.6834 155.388 71.75C155.104 71.85 154.821 71.9167 154.554 71.9167Z" fill="#9063CD"/>
<path d="M166.671 56.0167C166.637 56.0167 166.604 56.0167 166.571 56.0167C165.887 55.9667 165.371 55.35 165.421 54.6667C165.721 50.8 165.087 46.6334 163.537 42.2834C163.304 41.6334 163.637 40.9167 164.287 40.6834C164.937 40.45 165.654 40.7834 165.887 41.4334C167.571 46.1167 168.254 50.6334 167.921 54.8667C167.871 55.5167 167.321 56.0167 166.671 56.0167Z" fill="#59CBE8"/>
<path d="M156.587 73.5333C156.171 73.5333 155.754 73.3166 155.521 72.9333C155.154 72.35 155.354 71.5666 155.937 71.2166C155.987 71.1833 159.504 68.9833 162.237 64.5166C162.604 63.9333 163.371 63.7333 163.954 64.1C164.537 64.4666 164.737 65.2333 164.371 65.8166C161.304 70.8333 157.387 73.25 157.221 73.35C157.037 73.4833 156.804 73.5333 156.587 73.5333Z" fill="#59CBE8"/>
<path d="M133.622 87.8334C131.288 87.8334 129.305 86.05 129.088 83.6834C128.905 81.65 128.572 79.6334 128.072 77.6834C127.588 75.8 126.905 73.8834 126.038 71.9834C125.205 70.15 124.205 68.3667 123.088 66.6834C121.972 65.0334 120.688 63.45 119.272 61.9834C117.872 60.5167 116.338 59.1667 114.722 57.9667C113.155 56.8 111.422 55.7333 109.572 54.7833C107.772 53.8667 105.872 53.1 103.938 52.5C102.088 51.9333 100.088 51.5 98.0215 51.2333C95.5382 50.9167 93.7715 48.6333 94.1049 46.1333C94.4215 43.65 96.7049 41.8833 99.2049 42.2167C101.772 42.55 104.288 43.0833 106.638 43.8167C109.072 44.5667 111.438 45.5333 113.688 46.6667C116.005 47.85 118.188 49.1833 120.172 50.6667C122.188 52.1833 124.105 53.8667 125.855 55.6833C127.622 57.5333 129.222 59.5167 130.638 61.5834L130.655 61.6C132.072 63.7 133.305 65.9334 134.355 68.2334C135.421 70.6 136.288 73.0167 136.905 75.4C137.538 77.85 137.955 80.3667 138.188 82.8834C138.405 85.3834 136.555 87.6 134.055 87.8167C133.871 87.8334 133.738 87.8334 133.622 87.8334Z" fill="#F5B6CD"/>
<path d="M123.888 70.7833C122.805 70.7833 121.755 70.25 121.138 69.2667C118.771 65.5333 115.588 62.2167 111.938 59.7167C110.088 58.45 108.121 57.3667 106.105 56.5167C104.055 55.65 101.921 55 99.738 54.5833C95.3713 53.7333 90.788 53.7667 86.4713 54.7C82.1547 55.6167 77.9713 57.4667 74.3547 60.05C72.888 61.1 70.8713 60.75 69.8213 59.2833C68.7713 57.8167 69.1213 55.8 70.588 54.75C74.9213 51.6667 79.938 49.45 85.1213 48.35C90.288 47.25 95.7713 47.2 100.988 48.2167C103.605 48.7333 106.171 49.5167 108.621 50.5333C111.055 51.55 113.405 52.85 115.621 54.3667C119.988 57.3667 123.788 61.3333 126.621 65.8C127.588 67.3167 127.121 69.3167 125.605 70.2833C125.088 70.6167 124.488 70.7833 123.888 70.7833Z" fill="#FDDA24"/>
<path d="M93.4543 127.383C91.8377 127.383 90.221 127.283 88.621 127.1C86.221 126.817 83.8543 126.333 81.621 125.65C77.071 124.267 72.821 122.117 69.0043 119.267C61.371 113.533 55.821 104.983 53.7877 95.85C53.2377 93.4 54.7877 90.9667 57.2377 90.4167C59.6877 89.8667 62.121 91.4167 62.671 93.8667C64.2543 100.933 68.5543 107.533 74.471 111.983C77.4377 114.2 80.7377 115.867 84.2877 116.95C86.0043 117.483 87.8043 117.85 89.671 118.067C91.5043 118.283 93.371 118.333 95.221 118.233C97.7377 118.1 99.871 120.033 100.004 122.533C100.138 125.05 98.2043 127.183 95.7043 127.317C94.9543 127.367 94.2043 127.383 93.4543 127.383Z" fill="#F5B6CD"/>
<path d="M56.9212 73.2667C56.3545 73.2667 55.7878 73.15 55.2378 72.8834C53.2878 71.95 52.4712 69.6334 53.4045 67.6834C54.8045 64.7667 56.5378 61.9667 58.6045 59.3667C60.7045 56.7167 63.0212 54.3667 65.5045 52.3667C70.6712 48.2 76.7211 45.2 82.9878 43.7167C85.0878 43.2167 87.1878 44.5167 87.6711 46.6167C88.1711 48.7167 86.8711 50.8167 84.7711 51.3C79.6212 52.5167 74.6378 54.9834 70.3878 58.4334C68.3545 60.0667 66.4545 62 64.7212 64.2C63.0212 66.35 61.5878 68.65 60.4378 71.05C59.7712 72.45 58.3878 73.2667 56.9212 73.2667Z" fill="#00C389"/>
<path d="M64.0878 119.133C62.8878 119.133 61.6878 118.667 60.7878 117.717C56.5711 113.283 53.2378 107.917 51.1544 102.217C49.0711 96.5166 48.1544 90.2833 48.5044 84.1667C48.6544 81.6667 50.8044 79.75 53.3044 79.8833C55.8044 80.0333 57.7211 82.1833 57.5878 84.6833C57.3044 89.5667 58.0378 94.55 59.6878 99.0833C61.3544 103.633 64.0044 107.9 67.3711 111.433C69.1044 113.25 69.0211 116.133 67.2044 117.867C66.3544 118.717 65.2211 119.133 64.0878 119.133Z" fill="#FF7F41"/>
<path d="M93.4206 130.417C87.9873 130.417 82.554 129.417 77.4873 127.417C75.8206 126.767 74.9873 124.867 75.654 123.2C76.304 121.533 78.204 120.7 79.8706 121.367C87.1873 124.233 95.3706 124.7 102.954 122.667C110.571 120.65 117.454 116.167 122.337 110.05C123.454 108.65 125.504 108.417 126.904 109.533C128.304 110.65 128.537 112.7 127.421 114.1C121.671 121.283 113.587 126.567 104.637 128.933C100.971 129.933 97.1873 130.417 93.4206 130.417Z" fill="#59CBE8"/>
<path d="M114.054 120.883C112.621 120.883 111.204 120.217 110.321 118.95C108.871 116.9 109.371 114.05 111.437 112.617C113.321 111.3 115.071 109.767 116.621 108.067C118.137 106.417 119.504 104.567 120.687 102.517C121.837 100.533 122.771 98.4166 123.454 96.2333C124.121 94.1 124.571 91.8333 124.771 89.5C124.987 87 127.187 85.1333 129.687 85.35C132.187 85.5667 134.054 87.7667 133.837 90.2667C133.587 93.2667 133.004 96.2 132.121 98.9666C131.237 101.783 130.021 104.5 128.554 107.067C127.037 109.683 125.271 112.083 123.304 114.217C121.304 116.383 119.071 118.35 116.654 120.033C115.871 120.617 114.954 120.883 114.054 120.883Z" fill="#9063CD"/>
</svg>
