<svg width="180" height="180" viewBox="0 0 180 180" fill="none" xmlns="http://www.w3.org/2000/svg">
<path d="M44.75 49.1333C44.35 49.1333 44.0333 48.8167 44.0333 48.4167C44.0333 46.3333 43.3833 45.1 43.1 45.0333C42.7 45.0333 42.3833 44.7166 42.3833 44.3166C42.3833 43.9166 42.7 43.6 43.1 43.6C44.65 43.6 45.45 46.0167 45.45 48.4167C45.4666 48.8 45.15 49.1333 44.75 49.1333Z" fill="#00C389"/>
<path d="M52.1665 49.1333C51.7665 49.1333 51.4498 48.8167 51.4498 48.4167C51.4498 46.3333 50.7998 45.1 50.5165 45.0333C50.1165 45.0333 49.7998 44.7166 49.7998 44.3166C49.7998 43.9166 50.1165 43.6 50.5165 43.6C52.0665 43.6 52.8665 46.0167 52.8665 48.4167C52.8831 48.8 52.5498 49.1333 52.1665 49.1333Z" fill="#F5B6CD"/>
<path d="M59.5669 49.1333C59.1669 49.1333 58.8502 48.8167 58.8502 48.4167C58.8502 46.3333 58.2002 45.1 57.9169 45.0333C57.5169 45.0333 57.2002 44.7166 57.2002 44.3166C57.2002 43.9166 57.5169 43.6 57.9169 43.6C59.4669 43.6 60.2669 46.0167 60.2669 48.4167C60.2835 48.8 59.9669 49.1333 59.5669 49.1333Z" fill="#9063CD"/>
<path d="M66.4834 49.1333C66.0834 49.1333 65.7667 48.8167 65.7667 48.4167C65.7667 46.3333 65.1167 45.1 64.8334 45.0333C64.4334 45.0333 64.1167 44.7166 64.1167 44.3166C64.1167 43.9166 64.4334 43.6 64.8334 43.6C66.3834 43.6 67.1834 46.0167 67.1834 48.4167C67.2 48.8 66.8834 49.1333 66.4834 49.1333Z" fill="#59CBE8"/>
<path d="M74.3999 49.1333C73.9999 49.1333 73.6832 48.8167 73.6832 48.4167C73.6832 46.3333 73.0332 45.1 72.7499 45.0333C72.3499 45.0333 72.0332 44.7166 72.0332 44.3166C72.0332 43.9166 72.3499 43.6 72.7499 43.6C74.2999 43.6 75.0999 46.0167 75.0999 48.4167C75.0999 48.8 74.7832 49.1333 74.3999 49.1333Z" fill="#FF7F41"/>
<path d="M81.3832 53.5499H39.4165V93.8832H81.3832V53.5499Z" fill="#00C389"/>
<path d="M78.9999 51.5833H37.0332V91.9166H78.9999V51.5833Z" fill="#59CBE8"/>
<path d="M48.3833 84.5333C44.3833 84.5333 41.1333 81.2833 41.1333 77.2833V69.4833C41.1333 65.4833 44.3833 62.2333 48.3833 62.2333C52.3833 62.2333 55.6333 65.4833 55.6333 69.4833V77.2833C55.65 81.2833 52.3833 84.5333 48.3833 84.5333ZM48.3833 65.8833C46.4 65.8833 44.8 67.4999 44.8 69.4666V77.2666C44.8 79.2499 46.4166 80.8499 48.3833 80.8499C50.3666 80.8499 51.9666 79.2333 51.9666 77.2666V69.4666C51.9833 67.4999 50.3666 65.8833 48.3833 65.8833Z" fill="white"/>
<path d="M73.7001 79.3499H59.5501C58.9167 79.3499 58.3167 79.0166 57.9834 78.4666C57.6501 77.9166 57.6334 77.2333 57.9167 76.6666L64.2501 64.4166C64.7167 63.5166 65.8167 63.1666 66.7167 63.6333C67.6167 64.0999 67.9667 65.1999 67.5001 66.0999L62.5501 75.6666H73.6834C74.7001 75.6666 75.5167 76.4833 75.5167 77.4999C75.5167 78.5166 74.7001 79.3499 73.7001 79.3499Z" fill="white"/>
<path d="M70.2166 84.8999C69.2 84.8999 68.3833 84.0833 68.3833 83.0666V71.0666C68.3833 70.0499 69.2 69.2333 70.2166 69.2333C71.2333 69.2333 72.05 70.0499 72.05 71.0666V83.0666C72.05 84.0666 71.2333 84.8999 70.2166 84.8999Z" fill="white"/>
<path d="M79.1832 48.4166H37.0332V57.4H79.1832V48.4166Z" fill="#FDDA24"/>
<path d="M79.2167 57.4333H37V48.3833H79.2167V57.4333ZM37.0667 57.35H79.15V48.45H37.0667V57.35Z" fill="#FDDA24"/>
<path d="M43.1 53.2333C41.55 53.2333 40.75 50.8166 40.75 48.4166C40.75 46.0166 41.5667 43.6 43.1 43.6C43.5 43.6 43.8167 43.9166 43.8167 44.3166C43.8167 44.7166 43.5 45.0333 43.1 45.0333C42.8333 45.1 42.1667 46.3333 42.1667 48.4166C42.1667 50.5 42.8167 51.7333 43.1 51.8C43.5 51.8 43.8167 52.1166 43.8167 52.5166C43.8333 52.9166 43.5 53.2333 43.1 53.2333Z" fill="#00C389"/>
<path d="M50.5165 53.2333C48.9665 53.2333 48.1665 50.8166 48.1665 48.4166C48.1665 46.0166 48.9832 43.6 50.5165 43.6C50.9165 43.6 51.2332 43.9166 51.2332 44.3166C51.2332 44.7166 50.9165 45.0333 50.5165 45.0333C50.2498 45.1 49.5832 46.3333 49.5832 48.4166C49.5832 50.5 50.2332 51.7333 50.5165 51.8C50.9165 51.8 51.2332 52.1166 51.2332 52.5166C51.2332 52.9166 50.9165 53.2333 50.5165 53.2333Z" fill="#F5B6CD"/>
<path d="M57.9335 53.2333C56.3835 53.2333 55.5835 50.8166 55.5835 48.4166C55.5835 46.0166 56.4002 43.6 57.9335 43.6C58.3335 43.6 58.6502 43.9166 58.6502 44.3166C58.6502 44.7166 58.3335 45.0333 57.9335 45.0333C57.6668 45.1 57.0002 46.3333 57.0002 48.4166C57.0002 50.5 57.6502 51.7333 57.9335 51.8C58.3335 51.8 58.6502 52.1166 58.6502 52.5166C58.6502 52.9166 58.3168 53.2333 57.9335 53.2333Z" fill="#9063CD"/>
<path d="M65.3334 53.2333C63.7834 53.2333 62.9834 50.8166 62.9834 48.4166C62.9834 46.0166 63.8001 43.6 65.3334 43.6C65.7334 43.6 66.0501 43.9166 66.0501 44.3166C66.0501 44.7166 65.7334 45.0333 65.3334 45.0333C65.0667 45.1 64.4001 46.3333 64.4001 48.4166C64.4001 50.5 65.0501 51.7333 65.3334 51.8C65.7334 51.8 66.0501 52.1166 66.0501 52.5166C66.0501 52.9166 65.7334 53.2333 65.3334 53.2333Z" fill="#59CBE8"/>
<path d="M72.7499 53.2333C71.1999 53.2333 70.3999 50.8166 70.3999 48.4166C70.3999 46.0166 71.2166 43.6 72.7499 43.6C73.1499 43.6 73.4666 43.9166 73.4666 44.3166C73.4666 44.7166 73.1499 45.0333 72.7499 45.0333C72.4832 45.1 71.8166 46.3333 71.8166 48.4166C71.8166 50.5 72.4666 51.7333 72.7499 51.8C73.1499 51.8 73.4666 52.1166 73.4666 52.5166C73.4666 52.9166 73.1499 53.2333 72.7499 53.2333Z" fill="#FF7F41"/>
<path d="M109.617 152.367C128.155 152.367 143.184 137.338 143.184 118.8C143.184 100.262 128.155 85.2333 109.617 85.2333C91.0786 85.2333 76.0503 100.262 76.0503 118.8C76.0503 137.338 91.0786 152.367 109.617 152.367Z" fill="#E4AC7B"/>
<path d="M125.3 130.067L86.5336 130.1C82.3836 130.1 79.0169 126.733 79.0003 122.583L78.9336 34.9C78.9336 30.75 82.3003 27.3833 86.4503 27.3666L125.234 27.3333C129.384 27.3333 132.75 30.7 132.767 34.85L132.834 122.533C132.817 126.683 129.467 130.067 125.3 130.067Z" fill="#9063CD"/>
<path d="M105.917 127.483C107.804 127.483 109.333 125.954 109.333 124.067C109.333 122.18 107.804 120.65 105.917 120.65C104.03 120.65 102.5 122.18 102.5 124.067C102.5 125.954 104.03 127.483 105.917 127.483Z" fill="white"/>
<path d="M128.733 38.75L128.783 117.433H128.75L83.0501 117.467L83.0334 108.4L82.9834 38.7833L128.733 38.75Z" fill="white"/>
<path d="M118.584 57.6333H93.2505V90.7833H118.584V57.6333Z" fill="#FF7F41"/>
<path d="M114.934 68.2667H97.0006C96.5839 68.2667 96.2339 67.9167 96.2339 67.5C96.2339 67.0833 96.5839 66.7333 97.0006 66.7333H114.934C115.351 66.7333 115.701 67.0833 115.701 67.5C115.701 67.9167 115.351 68.2667 114.934 68.2667Z" fill="white"/>
<path d="M114.934 74.25H97.0006C96.5839 74.25 96.2339 73.9 96.2339 73.4833C96.2339 73.0667 96.5839 72.7167 97.0006 72.7167H114.934C115.351 72.7167 115.701 73.0667 115.701 73.4833C115.701 73.9 115.351 74.25 114.934 74.25Z" fill="white"/>
<path d="M114.934 80.2333H97.0006C96.5839 80.2333 96.2339 79.8833 96.2339 79.4667C96.2339 79.05 96.5839 78.7 97.0006 78.7H114.934C115.351 78.7 115.701 79.05 115.701 79.4667C115.701 79.8833 115.351 80.2333 114.934 80.2333Z" fill="white"/>
<path d="M114.934 86.2167H97.0006C96.5839 86.2167 96.2339 85.8667 96.2339 85.45C96.2339 85.0334 96.5839 84.6833 97.0006 84.6833H114.934C115.351 84.6833 115.701 85.0334 115.701 85.45C115.701 85.8667 115.351 86.2167 114.934 86.2167Z" fill="white"/>
<path d="M117.317 63.5667C120.925 63.5667 123.85 60.6416 123.85 57.0333C123.85 53.4251 120.925 50.5 117.317 50.5C113.709 50.5 110.784 53.4251 110.784 57.0333C110.784 60.6416 113.709 63.5667 117.317 63.5667Z" fill="#00C389"/>
<path d="M115.484 60.75C115.317 60.75 115.167 60.6833 115.034 60.5667L113.317 58.8333C113.067 58.5833 113.067 58.2 113.317 57.95C113.567 57.7 113.95 57.7 114.2 57.95L115.484 59.2333L120.417 54.2833C120.667 54.0333 121.05 54.0333 121.3 54.2833C121.55 54.5333 121.55 54.9167 121.3 55.1667L115.917 60.55C115.817 60.6833 115.65 60.75 115.484 60.75Z" fill="white"/>
<path d="M128.75 108.383H83.0337V117.467H128.75V108.383Z" fill="#FDDA24"/>
<path d="M142.334 121.067C141.2 126.35 138.95 131.383 135.684 135.783C134.95 136.767 134.35 137.933 133.85 139.2C133.267 140.667 132.817 142.267 132.484 143.817C130.65 143.467 128.9 142.85 127.3 142L117.9 130.083C117.533 128.617 117.333 127.083 117.333 125.5C117.333 119.217 120.433 113.667 125.184 110.283C126.7 109.2 127 108.867 128.8 108.267V100.3L121.7 85.75C118.917 81.4167 120.167 75.6667 124.5 72.8833C124.684 72.7667 124.884 72.7167 125.084 72.7167C125.434 72.7167 125.784 72.8833 125.984 73.2L133.634 85.1167L140.25 95.3333C141.817 97.75 142.7 100.533 142.834 103.417L143 107.1L143.05 108.183V108.217L143.184 111.2C143.3 114.567 143.017 117.867 142.334 121.067Z" fill="#E4AC7B"/>
<path d="M117.884 130.117L127.284 142.033C122.667 139.6 119.2 135.283 117.884 130.117Z" fill="#E4AC7B"/>
<path d="M143.033 108.233V108.25V108.233C143.017 108.233 143.017 108.233 143.033 108.233Z" fill="#CB913F"/>
<path d="M76.6668 116.55L71.2001 109.683C69.0168 106.95 69.4668 102.967 72.2001 100.783L77.1501 96.8333L86.5668 108.65C88.7501 111.383 88.3001 115.367 85.5668 117.55C82.8168 119.733 78.8335 119.283 76.6668 116.55Z" fill="#E4AC7B"/>
<path d="M76.6502 103.733L71.1835 96.8667C69.0002 94.1333 69.4502 90.15 72.1835 87.9667L77.1335 84.0167L86.5501 95.8333C88.7335 98.5667 88.2835 102.55 85.5501 104.733C82.8168 106.917 78.8335 106.467 76.6502 103.733Z" fill="#E4AC7B"/>
<path d="M76.6502 90.9333L71.1669 84.0666C68.9836 81.3333 69.4336 77.35 72.1669 75.1666L77.1169 71.2166L86.5336 83.0333C88.7169 85.7666 88.2669 89.75 85.5336 91.9333C82.8002 94.1166 78.8169 93.6666 76.6502 90.9333Z" fill="#E4AC7B"/>
<path d="M77.1167 58.4167L78.9667 57.0333V63.8333L77.1167 58.4167Z" fill="#E4AC7B"/>
<path d="M76.6336 78.1166L71.1669 71.25C68.9836 68.5166 69.4336 64.5333 72.1669 62.35L77.1169 58.4L86.5336 70.2166C88.7169 72.95 88.2669 76.9333 85.5336 79.1166C82.8002 81.3 78.8169 80.85 76.6336 78.1166Z" fill="#E4AC7B"/>
</svg>
